#  wavefront obj file written by the visualization toolkit

mtllib videoMuscle_l_fibula.mtl

v -0.004000000189989805 -0.4254409968852997 -0.029999999329447746
v -0.004000000189989805 -0.4318229854106903 -0.02459999918937683
v -0.004000000189989805 -0.42208200693130493 -0.024059999734163284
v -0.004000000189989805 -0.4106599986553192 -0.020010000094771385
v -0.004000000189989805 -0.392520010471344 -0.022439999505877495
v -0.004000000189989805 -0.38244399428367615 -0.024329999461770058
v -0.004000000189989805 -0.32298898696899414 -0.021090000867843628
v -0.004000000189989805 -0.25547099113464355 -0.020010000094771385
v -0.004000000189989805 -0.20542100071907043 -0.020010000094771385
v -0.004000000189989805 -0.15436400473117828 -0.021630000323057175
v -0.004000000189989805 -0.12043700367212296 -0.024329999461770058
v -0.004000000189989805 -0.08382300287485123 -0.026489999145269394
v -0.004000000189989805 -0.07038699835538864 -0.025949999690055847
v -0.004000000189989805 -0.06568499654531479 -0.029999999329447746
v -0.0003499999875202775 -0.42443299293518066 -0.02497600018978119
v 0.0017130000051110983 -0.41536301374435425 -0.022136999294161797
v 0.0012369999894872308 -0.40411099791526794 -0.022792000323534012
v 0.00012599999899975955 -0.38781899213790894 -0.024320999160408974
v -0.000826000003144145 -0.3654809892177582 -0.025630999356508255
v 0.0008399999933317304 -0.3011550009250641 -0.023336999118328094
v 0.001554999966174364 -0.22658400237560272 -0.022353999316692352
v 0.0012369999894872308 -0.17636600136756897 -0.022792000323534012
v 0.00044299999717622995 -0.1259790062904358 -0.0238840002566576
v 0.00012599999899975955 -0.10145899653434753 -0.024320999160408974
v 0.0011579999700188637 -0.08130499720573425 -0.022901000455021858
v -0.0004290000069886446 -0.06870800256729126 -0.025085000321269035
v 0.0026759998872876167 -0.4170440137386322 -0.027830999344587326
v 0.008839000016450882 -0.40864500403404236 -0.025828000158071518
v 0.0034469999372959137 -0.3975600004196167 -0.027580000460147858
v 0.0021619999315589666 -0.3831160068511963 -0.027997000142931938
v 0.0008789999992586672 -0.3485180139541626 -0.02841399982571602
v 0.0031900000758469105 -0.27932101488113403 -0.027664000168442726
v 0.004474000073969364 -0.1976960003376007 -0.027247000485658646
v 0.0034469999372959137 -0.14731000363826752 -0.027580000460147858
v 0.002420000033453107 -0.09759499877691269 -0.027914000675082207
v 0.00395999988541007 -0.08247999846935272 -0.02741299942135811
v 0.009352000430226326 -0.07878600060939789 -0.02566099911928177
v 0.0037040000315755606 -0.0670280009508133 -0.027496999129652977
v 0.0026759998872876167 -0.4170440137386322 -0.032168999314308167
v 0.008839000016450882 -0.40864500403404236 -0.03417100012302399
v 0.0034469999372959137 -0.3975600004196167 -0.032419998198747635
v 0.0021619999315589666 -0.3831160068511963 -0.03200199827551842
v 0.0008789999992586672 -0.3485180139541626 -0.031585998833179474
v 0.0031900000758469105 -0.27932101488113403 -0.032336000353097916
v 0.004474000073969364 -0.1976960003376007 -0.03275299817323685
v 0.0034469999372959137 -0.14731000363826752 -0.032419998198747635
v 0.002420000033453107 -0.09759499877691269 -0.032085999846458435
v 0.00395999988541007 -0.08247999846935272 -0.032586999237537384
v 0.009352000430226326 -0.07878600060939789 -0.034338999539613724
v 0.0037040000315755606 -0.0670280009508133 -0.032503001391887665
v 0.001475999946705997 -0.41989898681640625 -0.03753599897027016
v 0.004093999974429607 -0.4098210036754608 -0.04114000126719475
v -0.0002699999895412475 -0.39470601081848145 -0.03513399884104729
v -0.0005089999758638442 -0.3700149953365326 -0.03480499982833862
v -0.0009850000496953726 -0.30199599266052246 -0.03415000066161156
v -0.0009050000226125121 -0.2183540016412735 -0.03426000103354454
v 0.0003640000068116933 -0.1607459932565689 -0.036006998270750046
v 0.001554999966174364 -0.12194900214672089 -0.03764500096440315
v 0.0035379999317228794 -0.09171699732542038 -0.040376000106334686
v 0.0038560000248253345 -0.07777699828147888 -0.04081299901008606
v 0.003140999935567379 -0.07257100194692612 -0.03982999920845032
v -0.00019099999917671084 -0.0643410012125969 -0.035241998732089996
v -0.004000000189989805 -0.4227530062198639 -0.0416099987924099
v -0.004000000189989805 -0.4109959900379181 -0.044039998203516006
v -0.004000000189989805 -0.39184999465942383 -0.034860000014305115
v -0.004000000189989805 -0.3569149971008301 -0.03539999946951866
v -0.004000000189989805 -0.25547099113464355 -0.03513000160455704
v -0.004000000189989805 -0.15738700330257416 -0.03297000005841255
v -0.004000000189989805 -0.12379699945449829 -0.03593999892473221
v -0.004000000189989805 -0.09658800065517426 -0.04106999933719635
v -0.004000000189989805 -0.08584000170230865 -0.048900000751018524
v -0.004000000189989805 -0.07307499647140503 -0.04836000129580498
v -0.004000000189989805 -0.06635600328445435 -0.04025999829173088
v -0.004000000189989805 -0.06165299937129021 -0.034860000014305115
v -0.00804699957370758 -0.4259450137615204 -0.03556999936699867
v -0.010665000416338444 -0.41502898931503296 -0.03917500004172325
v -0.009712999686598778 -0.4020960032939911 -0.037863001227378845
v -0.010110000148415565 -0.3809340000152588 -0.0384100005030632
v -0.00828499998897314 -0.32853201031684875 -0.03589800000190735
v -0.006459999829530716 -0.26958000659942627 -0.033385999500751495
v -0.006777000147849321 -0.21936200559139252 -0.03382200002670288
v -0.008442999795079231 -0.15604299306869507 -0.03611600026488304
v -0.010745000094175339 -0.117078997194767 -0.03928399831056595
v -0.011220999993383884 -0.09440500289201736 -0.03993900120258331
v -0.01193500030785799 -0.06904300302267075 -0.040922001004219055
v -0.007094999775290489 -0.05913500115275383 -0.03426000103354454
v -0.006054999772459269 -0.4291360080242157 -0.030667999759316444
v -0.012217000126838684 -0.41905900835990906 -0.032669998705387115
v -0.017866000533103943 -0.412339985370636 -0.03450499847531319
v -0.018636999651789665 -0.40494999289512634 -0.034756001085042953
v -0.012986999936401844 -0.4015919864177704 -0.03292100131511688
v -0.00913500040769577 -0.3817729949951172 -0.031668998301029205
v -0.0073379999957978725 -0.31492799520492554 -0.031083999201655388
v -0.007852000184357166 -0.21549899876117706 -0.031252000480890274
v -0.007852000184357166 -0.14831799268722534 -0.031252000480890274
v -0.009906000457704067 -0.11573400348424911 -0.031918998807668686
v -0.01992099918425083 -0.07173100113868713 -0.035172998905181885
v -0.009393000043928623 -0.05661499872803688 -0.031752001494169235
v -0.006054999772459269 -0.4291360080242157 -0.029332000762224197
v -0.012217000126838684 -0.41905900835990906 -0.027329999953508377
v -0.017866000533103943 -0.412339985370636 -0.025495000183582306
v -0.018636999651789665 -0.40494999289512634 -0.02524399943649769
v -0.012986999936401844 -0.4015919864177704 -0.02707899920642376
v -0.00913500040769577 -0.3817729949951172 -0.028331000357866287
v -0.0073379999957978725 -0.31492799520492554 -0.028915999457240105
v -0.007852000184357166 -0.21549899876117706 -0.028748000040650368
v -0.007852000184357166 -0.14831799268722534 -0.028748000040650368
v -0.009906000457704067 -0.11573400348424911 -0.028080999851226807
v -0.01992099918425083 -0.07173100113868713 -0.024826999753713608
v -0.009393000043928623 -0.05661499872803688 -0.028248000890016556
v -0.006221999879926443 -0.4304800033569336 -0.026941999793052673
v -0.00828499998897314 -0.4205709993839264 -0.024102000519633293
v -0.011220999993383884 -0.4115000069141388 -0.02006099931895733
v -0.010745000094175339 -0.39873600006103516 -0.020716000348329544
v -0.008442999795079231 -0.39201799035072327 -0.0238840002566576
v -0.008205999620258808 -0.35238200426101685 -0.02421100065112114
v -0.007966999895870686 -0.28519999980926514 -0.024538999423384666
v -0.008125999942421913 -0.21046000719070435 -0.024320999160408974
v -0.0076500000432133675 -0.15133999288082123 -0.02497600018978119
v -0.00749099999666214 -0.11808600276708603 -0.02519500069320202
v -0.009952000342309475 -0.07777699828147888 -0.02180900052189827
v -0.006856999825686216 -0.06350100040435791 -0.026068000122904778
vn 0.7390110492706299 -0.6114250421524048 -0.28288203477859497
vn 0.5988629460334778 -0.699510931968689 0.38993293046951294
vn 0.11387304216623306 -0.16130907833576202 0.9803124070167542
vn 0.22314803302288055 -0.005835000425577164 0.9747671484947205
vn 0.05847301334142685 0.12293002754449844 0.9906912446022034
vn 0.008114002645015717 0.038740016520023346 0.9992163777351379
vn -0.0054010022431612015 -0.036627013236284256 0.9993144273757935
vn -0.17185398936271667 -0.005168999545276165 0.9851088523864746
vn -0.19278405606746674 0.017826005816459656 0.9810792803764343
vn -0.16551394760608673 0.03863098472356796 0.9854506254196167
vn -0.0517900250852108 0.030816014856100082 0.998182475566864
vn -0.09655896574258804 0.0292079895734787 0.9948986172676086
vn -0.008741999976336956 0.3215390145778656 0.9468560218811035
vn 0.5180557370185852 0.7391626238822937 0.4304147958755493
vn 0.7818580269813538 -0.6137099862098694 0.1098100021481514
vn 0.49714893102645874 -0.1372079849243164 0.8567478656768799
vn 0.5334720611572266 0.16804102063179016 0.8289570808410645
vn 0.5200522541999817 0.07921203970909119 0.8504534363746643
vn 0.638840913772583 0.004955999553203583 0.7693228721618652
vn 0.7572956681251526 -0.02938498556613922 0.6524106860160828
vn 0.691038191318512 -0.0002790000580716878 0.7228181958198547
vn 0.6375719308853149 0.020469998940825462 0.7701188921928406
vn 0.5522327423095703 -0.011868994683027267 0.8336055874824524
vn 0.21803003549575806 -0.30998101830482483 0.9254051446914673
vn -0.023873990401625633 -0.12190495431423187 0.9922546148300171
vn -0.1058799996972084 0.5221350193023682 0.8462650179862976
vn 0.7993652820587158 -0.5996452569961548 -0.03795701637864113
vn 0.9342653751373291 -0.12173204123973846 0.335156112909317
vn 0.8903809785842896 0.2725540101528168 0.36460399627685547
vn 0.9422752857208252 0.0663820207118988 0.3281930983066559
vn 0.9646899104118347 0.0010899999178946018 0.26338598132133484
vn 0.9799720644950867 -0.02566700242459774 0.19747401773929596
vn 0.9688019752502441 0.0023539999965578318 0.2478249967098236
vn 0.9597126245498657 0.02155999280512333 0.28015491366386414
vn 0.9641967415809631 -0.04286899045109749 0.26169994473457336
vn 0.8124290108680725 -0.5223199725151062 0.259115993976593
vn 0.8166661858558655 -0.31719207763671875 0.4821261167526245
vn 0.4360872209072113 0.7897873520851135 0.4313512146472931
vn 0.8206704258918762 -0.5646783113479614 -0.08739804476499557
vn 0.952844500541687 -0.0313359834253788 -0.30183684825897217
vn 0.9103471636772156 0.2605430483818054 -0.3215360641479492
vn 0.9562963247299194 0.03994501009583473 -0.2896580994129181
vn 0.9234783053398132 0.003560001263394952 -0.38363412022590637
vn 0.8368744850158691 -0.02605801448225975 -0.5467743277549744
vn 0.9116507768630981 -0.02267199382185936 -0.41033992171287537
vn 0.9931548833847046 -0.016653997823596 -0.1156119853258133
vn 0.9990419745445251 -0.0403439998626709 0.016958000138401985
vn 0.9599294066429138 -0.2111188769340515 -0.18429389595985413
vn 0.9321358799934387 0.11785798519849777 -0.3423919677734375
vn 0.5907608866691589 0.8067848086357117 -0.009995996952056885
vn 0.716098964214325 -0.5631879568099976 -0.41233694553375244
vn 0.6022998690605164 0.07834798097610474 -0.7944158315658569
vn 0.5039690732955933 0.22964602708816528 -0.8326331377029419
vn 0.5698690414428711 0.0037240004166960716 -0.8217270970344543
vn 0.4479098916053772 0.009064998477697372 -0.8940327763557434
vn 0.05906902253627777 -0.023749008774757385 -0.9979713559150696
vn 0.12273000180721283 -0.10328499972820282 -0.9870510101318359
vn 0.6605770587921143 -0.2693110406398773 -0.7007920742034912
vn 0.9007624387741089 -0.16982707381248474 -0.39973217248916626
vn 0.8282961845397949 0.23283405601978302 -0.5096211433410645
vn 0.6321409940719604 0.5325599908828735 -0.5628299713134766
vn 0.5758881568908691 0.8171412348747253 -0.02515900693833828
vn 0.2830889821052551 -0.694991946220398 -0.6609439253807068
vn 0.16325795650482178 -0.02105499431490898 -0.9863587617874146
vn 0.31326401233673096 0.1171950027346611 -0.9424070119857788
vn 0.029108988121151924 0.008563997223973274 -0.9995396137237549
vn -0.5429650545120239 0.037331003695726395 -0.8389251232147217
vn -0.6086831092834473 -0.012030002661049366 -0.7933222055435181
vn -0.4096590280532837 -0.07714300602674484 -0.9089710712432861
vn -0.24403700232505798 -0.24010500311851501 -0.9395719766616821
vn -0.07668102532625198 -0.21403205394744873 -0.9738122820854187
vn 0.21644997596740723 0.19194096326828003 -0.9572398662567139
vn 0.3561679720878601 0.4738139510154724 -0.8053848743438721
vn 0.5816003084182739 0.8029354214668274 -0.13052107393741608
vn 0.028977995738387108 -0.715364933013916 -0.6981499195098877
vn -0.21541795134544373 -0.3200969099998474 -0.9225687384605408
vn 0.15095993876457214 -0.07762196660041809 -0.9854876399040222
vn -0.5495732426643372 0.024869011715054512 -0.8350753784179688
vn -0.8575142025947571 0.05314401164650917 0.51170814037323
vn -0.9668716192245483 0.01962299272418022 0.2545078992843628
vn -0.8988182544708252 -0.013639003969728947 -0.4381091296672821
vn -0.9190518856048584 -0.04567699506878853 -0.391480952501297
vn -0.9437589049339294 -0.05689799413084984 -0.3257019817829132
vn -0.6451638340950012 -0.09502597898244858 -0.758111834526062
vn -0.16840195655822754 0.19478794932365417 -0.9662807583808899
vn 0.4832390248775482 0.7980620861053467 -0.35996803641319275
vn 0.04713301360607147 -0.8756992220878601 -0.480551153421402
vn -0.6917650103569031 -0.5826349854469299 -0.426611989736557
vn -0.6778671741485596 -0.3635060787200928 -0.6390301585197449
vn -0.9403624534606934 0.3399341404438019 -0.012780006974935532
vn -0.7204001545906067 0.3630611002445221 0.5909401178359985
vn -0.9170868992805481 0.07308699190616608 0.3919309377670288
vn -0.990037739276886 0.009157998487353325 0.14050397276878357
vn -0.9949229955673218 -0.0025839998852461576 0.10060600191354752
vn -0.9958938956260681 -0.03184899687767029 0.08474098891019821
vn -0.962702214717865 -0.14567703008651733 -0.2279970645904541
vn -0.8412039875984192 0.1914380043745041 -0.5056949853897095
vn 0.2155781239271164 0.9392374753952026 -0.26713114976882935
vn 0.09611500054597855 -0.9683619737625122 0.2302979975938797
vn -0.759290874004364 -0.5348669290542603 0.370667964220047
vn -0.8229832649230957 -0.3415320813655853 0.45393213629722595
vn -0.8841984272003174 0.36014118790626526 0.2974751591682434
vn -0.9168887734413147 0.3896719217300415 0.08643397688865662
vn -0.9983428716659546 0.05749299377202988 0.0024669996928423643
vn -0.9984645247459412 0.005633002612739801 -0.05510802939534187
vn -1 0.0003969999961555004 0.00021600000036414713
vn -0.9827544093132019 -0.0121030043810606 0.18451906740665436
vn -0.8845877647399902 -0.10809097439050674 0.45367488265037537
vn -0.7408168315887451 0.1851179599761963 0.6456947922706604
vn 0.35154297947883606 0.7535438537597656 0.5555079579353333
vn 0.29713013768196106 -0.8568643927574158 0.42130419611930847
vn -0.31910011172294617 -0.32336413860321045 0.8908483386039734
vn -0.24412910640239716 -0.17073507606983185 0.9545944333076477
vn -0.4693298935890198 0.22105194628238678 0.8549067974090576
vn -0.7447622418403625 0.1522320657968521 0.6497342586517334
vn -0.8780728578567505 -0.01518899854272604 0.47828593850135803
vn -0.9461523294448853 -0.00287800095975399 0.3237091302871704
vn -0.9202119708061218 0.00827999971807003 0.3913330137729645
vn -0.7321900725364685 0.03307000547647476 0.6802970767021179
vn -0.19248907268047333 0.009269003756344318 0.9812553524971008
vn 0.03718799352645874 0.054100990295410156 0.9978427886962891
vn 0.4579761326313019 0.3138620853424072 0.8317141532897949

g grp1
usemtl mtl1
f 15//15 2//2 1//1 
f 15//15 16//16 3//3 2//2 
f 16//16 17//17 4//4 3//3 
f 17//17 18//18 5//5 4//4 
f 18//18 19//19 6//6 5//5 
f 19//19 20//20 7//7 6//6 
f 20//20 21//21 8//8 7//7 
f 21//21 22//22 9//9 8//8 
f 22//22 23//23 10//10 9//9 
f 23//23 24//24 11//11 10//10 
f 24//24 25//25 12//12 11//11 
f 25//25 26//26 13//13 12//12 
f 26//26 14//14 13//13 
f 27//27 15//15 1//1 
f 27//27 28//28 16//16 15//15 
f 28//28 29//29 17//17 16//16 
f 29//29 30//30 18//18 17//17 
f 30//30 31//31 19//19 18//18 
f 31//31 32//32 20//20 19//19 
f 32//32 33//33 21//21 20//20 
f 33//33 34//34 22//22 21//21 
f 34//34 35//35 23//23 22//22 
f 35//35 36//36 24//24 23//23 
f 36//36 37//37 25//25 24//24 
f 37//37 38//38 26//26 25//25 
f 38//38 14//14 26//26 
f 39//39 27//27 1//1 
f 39//39 40//40 28//28 27//27 
f 40//40 41//41 29//29 28//28 
f 41//41 42//42 30//30 29//29 
f 42//42 43//43 31//31 30//30 
f 43//43 44//44 32//32 31//31 
f 44//44 45//45 33//33 32//32 
f 45//45 46//46 34//34 33//33 
f 46//46 47//47 35//35 34//34 
f 47//47 48//48 36//36 35//35 
f 48//48 49//49 37//37 36//36 
f 49//49 50//50 38//38 37//37 
f 50//50 14//14 38//38 
f 51//51 39//39 1//1 
f 51//51 52//52 40//40 39//39 
f 52//52 53//53 41//41 40//40 
f 53//53 54//54 42//42 41//41 
f 54//54 55//55 43//43 42//42 
f 55//55 56//56 44//44 43//43 
f 56//56 57//57 45//45 44//44 
f 57//57 58//58 46//46 45//45 
f 58//58 59//59 47//47 46//46 
f 59//59 60//60 48//48 47//47 
f 60//60 61//61 49//49 48//48 
f 61//61 62//62 50//50 49//49 
f 62//62 14//14 50//50 
f 63//63 51//51 1//1 
f 63//63 64//64 52//52 51//51 
f 64//64 65//65 53//53 52//52 
f 65//65 66//66 54//54 53//53 
f 66//66 67//67 55//55 54//54 
f 67//67 68//68 56//56 55//55 
f 68//68 69//69 57//57 56//56 
f 69//69 70//70 58//58 57//57 
f 70//70 71//71 59//59 58//58 
f 71//71 72//72 60//60 59//59 
f 72//72 73//73 61//61 60//60 
f 73//73 74//74 62//62 61//61 
f 74//74 14//14 62//62 
f 75//75 63//63 1//1 
f 75//75 76//76 64//64 63//63 
f 76//76 77//77 65//65 64//64 
f 77//77 78//78 66//66 65//65 
f 78//78 79//79 67//67 66//66 
f 79//79 80//80 68//68 67//67 
f 80//80 81//81 69//69 68//68 
f 81//81 82//82 70//70 69//69 
f 82//82 83//83 71//71 70//70 
f 83//83 84//84 72//72 71//71 
f 84//84 85//85 73//73 72//72 
f 85//85 86//86 74//74 73//73 
f 86//86 14//14 74//74 
f 87//87 75//75 1//1 
f 87//87 88//88 76//76 75//75 
f 88//88 89//89 77//77 76//76 
f 89//89 90//90 78//78 77//77 
f 90//90 91//91 79//79 78//78 
f 91//91 92//92 80//80 79//79 
f 92//92 93//93 81//81 80//80 
f 93//93 94//94 82//82 81//81 
f 94//94 95//95 83//83 82//82 
f 95//95 96//96 84//84 83//83 
f 96//96 97//97 85//85 84//84 
f 97//97 98//98 86//86 85//85 
f 98//98 14//14 86//86 
f 99//99 87//87 1//1 
f 99//99 100//100 88//88 87//87 
f 100//100 101//101 89//89 88//88 
f 101//101 102//102 90//90 89//89 
f 102//102 103//103 91//91 90//90 
f 103//103 104//104 92//92 91//91 
f 104//104 105//105 93//93 92//92 
f 105//105 106//106 94//94 93//93 
f 106//106 107//107 95//95 94//94 
f 107//107 108//108 96//96 95//95 
f 108//108 109//109 97//97 96//96 
f 109//109 110//110 98//98 97//97 
f 110//110 14//14 98//98 
f 111//111 99//99 1//1 
f 111//111 112//112 100//100 99//99 
f 112//112 113//113 101//101 100//100 
f 113//113 114//114 102//102 101//101 
f 114//114 115//115 103//103 102//102 
f 115//115 116//116 104//104 103//103 
f 116//116 117//117 105//105 104//104 
f 117//117 118//118 106//106 105//105 
f 118//118 119//119 107//107 106//106 
f 119//119 120//120 108//108 107//107 
f 120//120 121//121 109//109 108//108 
f 121//121 122//122 110//110 109//109 
f 122//122 14//14 110//110 
f 2//2 111//111 1//1 
f 2//2 3//3 112//112 111//111 
f 3//3 4//4 113//113 112//112 
f 4//4 5//5 114//114 113//113 
f 5//5 6//6 115//115 114//114 
f 6//6 7//7 116//116 115//115 
f 7//7 8//8 117//117 116//116 
f 8//8 9//9 118//118 117//117 
f 9//9 10//10 119//119 118//118 
f 10//10 11//11 120//120 119//119 
f 11//11 12//12 121//121 120//120 
f 12//12 13//13 122//122 121//121 
f 13//13 14//14 122//122 
