#  wavefront obj file written by the visualization toolkit

mtllib videoMuscle_rotatedcerv7.mtl

v -0.019123999401926994 0.017729999497532845 0.0001500000071246177
v -0.008018000051379204 0.017501000314950943 0.0001500000071246177
v -0.007369999773800373 0.017513999715447426 -0.00418000016361475
v -0.020078999921679497 0.01785299926996231 0.0001500000071246177
v -0.007369999773800373 0.017513999715447426 0.004480000119656324
v -0.014971000142395496 0.0032820000778883696 -0.002122000092640519
v -0.008338999934494495 0.0168869998306036 -0.0014850000152364373
v -0.014972999691963196 0.003281000070273876 0.0001500000071246177
v -0.008338999934494495 0.0168869998306036 0.0017859999788925052
v -0.014971000142395496 0.0032820000778883696 0.0024220000486820936
v -0.0017709999810904264 0.018490999937057495 -0.012190000154078007
v -0.008317999541759491 0.01768600009381771 -0.0049600000493228436
v -0.011625999584794044 0.012721000239253044 -0.011812999844551086
v -0.023770000785589218 0.013944000005722046 -0.005270000081509352
v -0.03102000057697296 0.01621299982070923 -0.003751999931409955
v -0.03643399849534035 0.01779700070619583 -0.003527000080794096
v -0.03599200025200844 0.01978899911046028 0.0001500000071246177
v -0.03643399849534035 0.01779700070619583 0.003828000044450164
v -0.03102000057697296 0.01621299982070923 0.004052999895066023
v -0.023770000785589218 0.013944000005722046 0.005570999812334776
v -0.011625999584794044 0.012721000239253044 0.012113000266253948
v -0.0017709999810904264 0.018490999937057495 0.012490999884903431
v -0.008317999541759491 0.01768600009381771 0.005260000005364418
v -0.008262000046670437 0.006850999779999256 -0.009837999939918518
v -0.024938000366091728 0.008988999761641026 -0.006678999867290258
v -0.015053999610245228 0.00587099976837635 -0.012267000041902065
v -0.024942999705672264 0.00898400042206049 0.0001500000071246177
v -0.024938000366091728 0.008988999761641026 0.006978999823331833
v -0.008262000046670437 0.006850999779999256 0.010138999670743942
v -0.015053999610245228 0.00587099976837635 0.012567000463604927
v 0.0014039999805390835 0.012993999756872654 -0.012268999591469765
v 0.00045200000749900937 0.013914999552071095 -0.0137320002540946
v -0.00443200021982193 0.015682000666856766 -0.022884000092744827
v -0.03085700049996376 0.010161000303924084 -0.005750999785959721
v -0.037585001438856125 0.00955899991095066 -0.00559299997985363
v -0.041673000901937485 0.009976999834179878 -0.005446000024676323
v -0.043772999197244644 0.017947999760508537 -0.004315999802201986
v -0.04207000136375427 0.021922999992966652 0.0001500000071246177
v -0.043772999197244644 0.017947999760508537 0.004616000223904848
v -0.041673000901937485 0.009976999834179878 0.005745999980717897
v -0.037585001438856125 0.00955899991095066 0.0058929999358952045
v -0.03085700049996376 0.010161000303924084 0.006051999982446432
v -0.00443200021982193 0.015682000666856766 0.02318499982357025
v 0.00045200000749900937 0.013914999552071095 0.014031999744474888
v 0.0014039999805390835 0.012993999756872654 0.012570000253617764
v 0.003630999941378832 0.006479000207036734 -0.010931000113487244
v -0.0007949999999254942 0.0021039999555796385 -0.00982499960809946
v 0.0035749999806284904 0.012493000365793705 -0.02142300084233284
v -0.012484000064432621 0.006180999800562859 -0.023081999272108078
v -0.030861999839544296 0.01015700027346611 0.0001500000071246177
v -0.008442999795079231 0.011304999701678753 -0.024598000571131706
v -0.013592000119388103 0.006198999937623739 -0.017400000244379044
v 0.003630999941378832 0.006479000207036734 0.01123099960386753
v -0.0007949999999254942 0.0021039999555796385 0.01012600027024746
v 0.0035749999806284904 0.012493000365793705 0.021724000573158264
v -0.012484000064432621 0.006180999800562859 0.02338300086557865
v -0.008442999795079231 0.011304999701678753 0.024898000061511993
v -0.013592000119388103 0.006198999937623739 0.01769999973475933
v 0.007455999962985516 0.015876000747084618 -0.009891999885439873
v 0.007801000028848648 0.01724500022828579 -0.010986999608576298
v 0.004643999971449375 0.013136999681591988 -0.013144999742507935
v 0.006080999970436096 0.013155000284314156 -0.01664699986577034
v 0.0029980000108480453 0.01686899922788143 -0.018869999796152115
v -0.0017239999724552035 0.0160559993237257 -0.025529999285936356
v 0.006678999867290258 0.023601999506354332 -0.02682800032198429
v -0.037588998675346375 0.009554999880492687 0.0001500000071246177
v -0.041676998138427734 0.009972999803721905 0.0001500000071246177
v -0.045534998178482056 0.013101000338792801 -0.004209999926388264
v -0.045534998178482056 0.013101000338792801 0.004511000122874975
v -0.0017239999724552035 0.0160559993237257 0.025830000638961792
v 0.006678999867290258 0.023601999506354332 0.027129000052809715
v 0.0029980000108480453 0.01686899922788143 0.01917099952697754
v 0.004643999971449375 0.013136999681591988 0.013446000404655933
v 0.006080999970436096 0.013155000284314156 0.016947999596595764
v 0.007801000028848648 0.01724500022828579 0.011288000270724297
v 0.007455999962985516 0.015876000747084618 0.010192999616265297
v 0.0002010000025620684 0.0006580000044777989 -0.004100999794900417
v 0.01800299994647503 -0.005942000076174736 -0.008542999625205994
v 0.01540399994701147 -0.003737000050023198 -0.015003000386059284
v 0.01196299958974123 -0.0023330000694841146 -0.016757000237703323
v 0.010041999630630016 0.003737000050023198 -0.01839900016784668
v 0.005630000028759241 0.010374000295996666 -0.018276000395417213
v 0.004342000000178814 0.022074000909924507 -0.02915400080382824
v 0.0036039999686181545 0.012156999669969082 -0.02508700080215931
v 0.005537000019103289 0.019437000155448914 -0.03171199932694435
v 0.001905999961309135 0.011687999591231346 -0.03406799957156181
v 0.00483699981123209 0.00904299970716238 -0.03044700063765049
v 0.008604000322520733 0.009387999773025513 -0.019548999145627022
v 0.008779999800026417 0.008310999721288681 -0.02349499985575676
v 0.007621999830007553 0.007431000005453825 -0.027730999514460564
v 0.009863000363111496 0.006202000193297863 -0.022693000733852386
v 0.00006600000051548705 0.015022000297904015 -0.029665999114513397
v 0.0002010000025620684 0.0006580000044777989 0.004401000216603279
v 0.01540399994701147 -0.003737000050023198 0.015302999876439571
v 0.01800299994647503 -0.005942000076174736 0.008844000287353992
v 0.01196299958974123 -0.0023330000694841146 0.017057999968528748
v 0.010041999630630016 0.003737000050023198 0.018698999658226967
v 0.005630000028759241 0.010374000295996666 0.0185759998857975
v 0.004342000000178814 0.022074000909924507 0.029454000294208527
v 0.005537000019103289 0.019437000155448914 0.03201200067996979
v 0.0036039999686181545 0.012156999669969082 0.025388000532984734
v 0.001905999961309135 0.011687999591231346 0.03436899930238724
v 0.00483699981123209 0.00904299970716238 0.030748000368475914
v 0.008779999800026417 0.008310999721288681 0.023795999586582184
v 0.008604000322520733 0.009387999773025513 0.019850000739097595
v 0.009863000363111496 0.006202000193297863 0.02299400046467781
v 0.007621999830007553 0.007431000005453825 0.028031999245285988
v 0.00006600000051548705 0.015022000297904015 0.02996700070798397
v 0.010649999603629112 0.019148999825119972 -0.01166599988937378
v 0.009631999768316746 0.014298000372946262 -0.005158999934792519
v 0.011758999899029732 0.017827000468969345 -0.014329000376164913
v 0.008608999662101269 0.014305000193417072 -0.0023900000378489494
v 0 -0.000007999999979801942 0.0001500000071246177
v 0.010648000054061413 0.01729300059378147 -0.015713000670075417
v 0.010648000054061413 0.01729300059378147 0.016013000160455704
v 0.011758999899029732 0.017827000468969345 0.014630000106990337
v 0.010649999603629112 0.019148999825119972 0.011966000311076641
v 0.009631999768316746 0.014298000372946262 0.00546000013127923
v 0.008608999662101269 0.014305000193417072 0.0026910000015050173
v 0.019255999475717545 -0.006283000111579895 -0.00216299993917346
v 0.019276000559329987 -0.006134999915957451 0.0001500000071246177
v 0.021796999499201775 0.007505999878048897 -0.007528000045567751
v 0.01894400082528591 0.009595000185072422 -0.011725000105798244
v 0.01705699972808361 0.011628000065684319 -0.01334100030362606
v 0.012728000059723854 0.010041000321507454 -0.017268000170588493
v 0.01018499955534935 0.007493000011891127 -0.023287000134587288
v 0.0063149998895823956 0.010688000358641148 -0.025841999799013138
v 0.004420999903231859 0.01218399964272976 -0.03339599817991257
v 0.007718999870121479 0.00873200036585331 -0.02680799923837185
v 0.019255999475717545 -0.006283000111579895 0.002463999902829528
v 0.021796999499201775 0.007505999878048897 0.007829000242054462
v 0.01894400082528591 0.009595000185072422 0.012024999596178532
v 0.01705699972808361 0.011628000065684319 0.013640999794006348
v 0.012728000059723854 0.010041000321507454 0.017568999901413918
v 0.01018499955534935 0.007493000011891127 0.023586999624967575
v 0.0063149998895823956 0.010688000358641148 0.026142999529838562
v 0.004420999903231859 0.01218399964272976 0.033695999532938004
v 0.007718999870121479 0.00873200036585331 0.027108000591397285
v 0.013550999574363232 0.016157999634742737 -0.013435999862849712
v 0.010954000055789948 0.012525999918580055 0.0001500000071246177
v 0.02263600006699562 0.0071390001103281975 0.0001500000071246177
v 0.013550999574363232 0.016157999634742737 0.013736000284552574
vn 0.020952008664608 0.9997804760932922 -0.0000010000004522225936
vn 0.9873380064964294 -0.15863099694252014 0
vn 0.0711820051074028 0.9574100375175476 0.2798200249671936
vn 0.024553004652261734 0.9991771578788757 -0.032283008098602295
vn 0.06678600609302521 0.9595591425895691 -0.27347004413604736
vn 0.5780318975448608 -0.8157048225402832 -0.022467995062470436
vn 0.9161747694015503 -0.20234794914722443 0.34594690799713135
vn 0.3433721661567688 -0.9391994476318359 0
vn 0.9161748886108398 -0.20234696567058563 -0.3459469676017761
vn 0.5262769460678101 -0.8471938967704773 -0.07276799529790878
vn 0.5184109210968018 0.8529468774795532 0.061087992042303085
vn -0.6071308851242065 0.7027138471603394 0.3709249198436737
vn -0.7152661681175232 0.5044311285018921 -0.48367711901664734
vn -0.18550610542297363 0.606708288192749 -0.7729763984680176
vn 0.014884999953210354 0.4668219983577728 -0.8842260241508484
vn 0.07100602239370346 0.5207712054252625 -0.8507382273674011
vn 0.1218249574303627 0.9924276471138 -0.015689995139837265
vn 0.09296704828739166 0.5340162515640259 0.840347409248352
vn 0.041153017431497574 0.499199241399765 0.8655093908309937
vn -0.12251300364732742 0.4176360070705414 0.9003170132637024
vn -0.7544373273849487 0.3166261315345764 0.5749541521072388
vn 0.47375398874282837 0.8024320006370544 -0.36285001039505005
vn -0.6936981678009033 0.6486061811447144 -0.3131980895996094
vn 0.6967819929122925 -0.6294689774513245 0.34389498829841614
vn -0.4605851471424103 -0.6089001893997192 -0.64583420753479
vn -0.793373167514801 0.18658804893493652 -0.5794340968132019
vn -0.3005608916282654 -0.9537626504898071 -0.0000029999989692441886
vn -0.40296921133995056 -0.7625864148139954 0.5060412883758545
vn 0.3954859972000122 -0.6487699747085571 -0.6501449942588806
vn -0.8762611746788025 0.15763603150844574 0.4553211033344269
vn 0.04130401089787483 0.9367052912712097 0.34767410159111023
vn 0.4097568392753601 0.8861756920814514 0.21631492674350739
vn -0.5020971298217773 0.8587591648101807 -0.10213302075862885
vn -0.2399781197309494 -0.5874683260917664 -0.7728463411331177
vn -0.01956798881292343 -0.5948176383972168 -0.8036225438117981
vn -0.3737489879131317 -0.23646600544452667 -0.8968809843063354
vn -0.36680397391319275 0.4723389446735382 -0.8014678955078125
vn -0.9567428827285767 0.2867879569530487 0.04894799366593361
vn -0.34740421175956726 0.41073423624038696 0.8429754972457886
vn -0.3737470209598541 -0.23646502196788788 0.8968820571899414
vn 0.007725995499640703 -0.6157516241073608 0.7879025340080261
vn -0.08687802404165268 -0.7626592516899109 0.6409391760826111
vn -0.5594199299812317 0.8151589035987854 0.15021798014640808
vn 0.2533779740333557 0.8211448788642883 -0.5113909244537354
vn 0.018925011157989502 0.5638513565063477 -0.825659453868866
vn -0.38666802644729614 0.5373960733413696 0.7494620680809021
vn -0.7014310359954834 -0.5764970779418945 -0.4191010296344757
vn 0.33788904547691345 -0.8813601732254028 -0.3302050530910492
vn -0.7267892360687256 0.0221210066229105 -0.6865041851997375
vn -0.000821999681647867 -0.9999996423721313 -0.0000029999989692441886
vn -0.735920786857605 0.5651588439941406 -0.37284886837005615
vn -0.7775490283966064 0.6082289814949036 -0.15960900485515594
vn -0.26274505257606506 0.32648906111717224 -0.9079481959342957
vn -0.7017170786857605 -0.5762760639190674 0.41892606019973755
vn 0.3264288902282715 -0.9002026915550232 0.2882349193096161
vn -0.7826448082923889 0.005206998437643051 0.6224468946456909
vn -0.7359210252761841 0.565159022808075 0.3728480041027069
vn -0.7775506973266602 0.6082267761230469 0.15960894525051117
vn -0.5089151859283447 0.7949172258377075 0.3303211033344269
vn -0.3306320905685425 0.912064254283905 0.24253106117248535
vn -0.28367096185684204 0.9579548835754395 0.04305099695920944
vn 0.09595603495836258 0.9387174248695374 -0.3310621380805969
vn 0.4095119535923004 0.8043088912963867 0.4305659532546997
vn -0.6774600148200989 0.7195450067520142 -0.15265299379825592
vn 0.4617690145969391 0.7904639840126038 0.402413010597229
vn 0.04602501541376114 -0.9989402890205383 0.0000040000013541430235
vn -0.6943721175193787 -0.7196161150932312 0.000005000000783184078
vn -0.9980314373970032 -0.062341026961803436 -0.00685100257396698
vn -0.9980316162109375 -0.06233897805213928 0.00684899790212512
vn -0.7048875689506531 0.685977578163147 0.180466890335083
vn 0.35613399744033813 0.86981201171875 -0.3414610028266907
vn 0.239394873380661 0.9037016034126282 -0.3549838066101074
vn -0.3791041076183319 0.9202643036842346 0.09692102670669556
vn -0.06610599160194397 0.9261708855628967 0.3712649643421173
vn -0.5946826934814453 0.7751976251602173 -0.2131228893995285
vn -0.6156408786773682 0.7027558088302612 -0.35653990507125854
vn -0.9123920798301697 -0.3853800296783447 0.13792401552200317
vn 0.4438610076904297 -0.8201879858970642 -0.360942006111145
vn 0.2561960816383362 -0.7070502638816833 -0.6591232419013977
vn 0.09794902801513672 -0.45235615968704224 -0.886442244052887
vn 0.1569950133562088 -0.5101210474967957 -0.8456530570983887
vn 0.23077499866485596 0.7696700096130371 -0.5952739715576172
vn -0.1738080382347107 0.546386182308197 -0.8193002343177795
vn 0.7277129292488098 0.6236329674720764 0.28550997376441956
vn 0.669003963470459 0.5021209120750427 -0.5480039119720459
vn -0.3104010224342346 -0.45989707112312317 -0.8319531083106995
vn -0.20245487987995148 -0.907962441444397 -0.36690080165863037
vn 0.37139803171157837 0.8315470814704895 -0.4130290150642395
vn 0.5579683184623718 0.8288084268569946 -0.04180802404880524
vn 0.013703005388379097 -0.9319463968276978 -0.3623371422290802
vn 0.29698610305786133 -0.8401942253112793 -0.4537321627140045
vn -0.5752729177474976 0.47665995359420776 -0.6647229194641113
vn -0.9104877710342407 -0.40661290287971497 -0.07535198330879211
vn 0.23601888120174408 -0.7238776683807373 0.6483026742935181
vn 0.4326660931110382 -0.8345232009887695 0.3411320745944977
vn 0.10054798424243927 -0.4499019384384155 0.8873998522758484
vn 0.15731701254844666 -0.508245050907135 0.8467221260070801
vn 0.1953980028629303 0.763388991355896 0.6156759858131409
vn -0.21052096784114838 0.7355789542198181 0.6438979506492615
vn 0.6418229341506958 0.6685699224472046 0.37560293078422546
vn 0.67402583360672 0.6626148223876953 -0.3265438973903656
vn -0.3103961646556854 -0.45989423990249634 0.8319564461708069
vn -0.09637901186943054 -0.9299411177635193 0.3548530340194702
vn 0.35417816042900085 0.9334664344787598 -0.056554023176431656
vn 0.24880696833133698 0.8526908755302429 0.4593619406223297
vn 0.24759703874588013 -0.8050701022148132 0.5390341281890869
vn 0.15458498895168304 -0.9014238715171814 0.40439894795417786
vn -0.5752729773521423 0.47666099667549133 0.6647220253944397
vn 0.42977678775787354 0.7960266470909119 0.4261848032474518
vn 0.36065301299095154 0.8991910219192505 0.24775999784469604
vn 0.46233099699020386 0.8860139846801758 0.035062000155448914
vn -0.20810995995998383 0.8803527355194092 0.4262269139289856
vn -0.995491623878479 -0.08226896822452545 0.04720498248934746
vn -0.1608099788427353 0.6819109320640564 -0.7135389447212219
vn -0.17142903804779053 0.6140021085739136 0.7704631686210632
vn 0.13915100693702698 0.9782059788703918 0.15411099791526794
vn 0.18529295921325684 0.8368778228759766 -0.5150749087333679
vn 0.36740079522132874 0.8944884538650513 -0.25476884841918945
vn -0.23527391254901886 0.8974837064743042 -0.3730538785457611
vn 0.7641350626945496 -0.6298110485076904 -0.1394120156764984
vn 0.5198968052864075 -0.8519107103347778 -0.06289397925138474
vn 0.920977771282196 0.3555239140987396 -0.1593819558620453
vn 0.7498012185096741 0.45157214999198914 -0.48361217975616455
vn 0.790607213973999 0.43268612027168274 -0.433270126581192
vn 0.7009950876235962 0.2971990406513214 -0.6482890844345093
vn 0.8649823665618896 0.4208221733570099 -0.2733391225337982
vn 0.7809891104698181 0.6143190860748291 0.11255301535129547
vn 0.5029048323631287 0.11702695488929749 -0.8563827276229858
vn 0.8621944189071655 0.29609414935112 -0.4110341966152191
vn 0.7767900228500366 -0.6269729733467102 0.05917999893426895
vn 0.9233849048614502 0.3355949819087982 0.18637698888778687
vn 0.7530460953712463 0.4331470727920532 0.4952830672264099
vn 0.8213512897491455 0.41568315029144287 0.3906271457672119
vn 0.6307708024978638 0.3373859226703644 0.698783814907074
vn 0.7292046546936035 0.6506916880607605 0.21180389821529388
vn 0.7082840204238892 0.6626120209693909 -0.24347299337387085
vn 0.5787069201469421 0.16337399184703827 0.7990038990974426
vn 0.8585180044174194 0.45188799500465393 0.24237200617790222
vn 0.7139458060264587 0.6094858646392822 -0.3446859121322632
vn 0.12405998259782791 0.9912908673286438 0.04417699575424194
vn 0.8796272277832031 0.475065141916275 0.02385600656270981
vn 0.7421109676361084 0.6013179421424866 0.2961219847202301

g grp1
usemtl mtl1
f 1//1 2//2 3//3 
f 3//3 4//4 1//1 
f 5//5 2//2 1//1 
f 1//1 4//4 5//5 
f 6//6 7//7 2//2 
f 8//8 6//6 2//2 
f 2//2 7//7 3//3 
f 2//2 9//9 10//10 
f 2//2 10//10 8//8 
f 5//5 9//9 2//2 
f 11//11 3//3 7//7 
f 11//11 12//12 3//3 
f 3//3 13//13 14//14 4//4 
f 13//13 3//3 12//12 
f 4//4 15//15 16//16 17//17 
f 14//14 15//15 4//4 
f 17//17 18//18 19//19 4//4 
f 4//4 19//19 20//20 
f 4//4 20//20 21//21 5//5 
f 9//9 5//5 22//22 
f 5//5 23//23 22//22 
f 23//23 5//5 21//21 
f 24//24 7//7 6//6 
f 24//24 6//6 25//25 26//26 
f 25//25 6//6 8//8 27//27 
f 11//11 7//7 24//24 
f 27//27 8//8 10//10 28//28 
f 29//29 9//9 22//22 
f 10//10 9//9 29//29 
f 30//30 28//28 10//10 29//29 
f 31//31 32//32 11//11 24//24 
f 11//11 33//33 13//13 12//12 
f 11//11 32//32 33//33 
f 14//14 13//13 25//25 34//34 
f 13//13 26//26 25//25 
f 13//13 33//33 26//26 
f 15//15 14//14 34//34 35//35 
f 15//15 35//35 36//36 
f 16//16 15//15 36//36 
f 17//17 16//16 37//37 38//38 
f 36//36 37//37 16//16 
f 38//38 39//39 18//18 17//17 
f 40//40 19//19 18//18 
f 18//18 39//39 40//40 
f 40//40 41//41 19//19 
f 41//41 42//42 20//20 19//19 
f 42//42 28//28 21//21 20//20 
f 23//23 21//21 43//43 22//22 
f 28//28 30//30 21//21 
f 30//30 43//43 21//21 
f 29//29 22//22 44//44 45//45 
f 43//43 44//44 22//22 
f 31//31 24//24 46//46 
f 46//46 24//24 47//47 
f 48//48 47//47 24//24 
f 48//48 24//24 26//26 49//49 
f 50//50 34//34 25//25 27//27 
f 26//26 33//33 51//51 
f 26//26 51//51 52//52 
f 26//26 52//52 49//49 
f 27//27 28//28 42//42 50//50 
f 53//53 29//29 45//45 
f 54//54 29//29 53//53 
f 29//29 54//54 55//55 
f 56//56 30//30 29//29 55//55 
f 57//57 43//43 30//30 
f 58//58 57//57 30//30 
f 56//56 58//58 30//30 
f 59//59 60//60 31//31 46//46 
f 60//60 61//61 31//31 
f 61//61 32//32 31//31 
f 62//62 63//63 32//32 61//61 
f 63//63 33//33 32//32 
f 33//33 64//64 51//51 
f 33//33 63//63 65//65 64//64 
f 66//66 35//35 34//34 50//50 
f 67//67 36//36 35//35 66//66 
f 67//67 38//38 36//36 
f 68//68 36//36 38//38 
f 68//68 37//37 36//36 
f 37//37 68//68 38//38 
f 40//40 38//38 67//67 
f 38//38 69//69 39//39 
f 38//38 40//40 69//69 
f 40//40 39//39 69//69 
f 66//66 41//41 40//40 67//67 
f 50//50 42//42 41//41 66//66 
f 57//57 70//70 43//43 
f 70//70 71//71 72//72 43//43 
f 44//44 43//43 72//72 
f 73//73 44//44 72//72 74//74 
f 45//45 44//44 73//73 
f 53//53 45//45 75//75 76//76 
f 45//45 73//73 75//75 
f 59//59 46//46 47//47 
f 59//59 47//47 77//77 
f 78//78 77//77 47//47 79//79 
f 79//79 47//47 80//80 
f 80//80 47//47 81//81 
f 47//47 48//48 81//81 
f 82//82 48//48 63//63 62//62 
f 48//48 65//65 63//63 
f 48//48 83//83 65//65 
f 48//48 84//84 85//85 83//83 
f 48//48 49//49 86//86 
f 48//48 86//86 87//87 
f 84//84 48//48 88//88 89//89 
f 48//48 82//82 88//88 
f 90//90 91//91 48//48 
f 91//91 81//81 48//48 
f 48//48 87//87 90//90 
f 52//52 51//51 49//49 
f 51//51 92//92 49//49 
f 92//92 86//86 49//49 
f 64//64 92//92 51//51 
f 54//54 53//53 76//76 
f 93//93 54//54 76//76 
f 94//94 54//54 93//93 95//95 
f 96//96 54//54 94//94 
f 97//97 54//54 96//96 
f 97//97 55//55 54//54 
f 74//74 72//72 55//55 98//98 
f 72//72 71//71 55//55 
f 71//71 99//99 55//55 
f 99//99 100//100 101//101 55//55 
f 102//102 56//56 55//55 
f 103//103 102//102 55//55 
f 104//104 105//105 55//55 101//101 
f 105//105 98//98 55//55 
f 55//55 106//106 107//107 
f 55//55 97//97 106//106 
f 107//107 103//103 55//55 
f 56//56 57//57 58//58 
f 56//56 108//108 57//57 
f 56//56 102//102 108//108 
f 57//57 108//108 70//70 
f 109//109 59//59 110//110 
f 111//111 60//60 59//59 109//109 
f 110//110 59//59 112//112 
f 112//112 59//59 77//77 113//113 
f 111//111 114//114 61//61 60//60 
f 114//114 62//62 61//61 
f 82//82 62//62 114//114 
f 83//83 64//64 65//65 
f 92//92 64//64 83//83 
f 71//71 70//70 99//99 
f 99//99 70//70 108//108 
f 75//75 73//73 115//115 116//116 
f 73//73 74//74 115//115 
f 115//115 74//74 98//98 
f 117//117 76//76 75//75 116//116 
f 118//118 76//76 117//117 
f 119//119 76//76 118//118 
f 113//113 93//93 76//76 119//119 
f 77//77 78//78 120//120 121//121 113//113 
f 78//78 122//122 120//120 
f 79//79 123//123 122//122 78//78 
f 80//80 123//123 79//79 
f 81//81 124//124 123//123 80//80 
f 81//81 125//125 124//124 
f 81//81 91//91 126//126 125//125 
f 88//88 82//82 114//114 
f 83//83 85//85 92//92 
f 127//127 85//85 84//84 
f 127//127 84//84 89//89 
f 85//85 128//128 92//92 
f 127//127 128//128 85//85 
f 92//92 128//128 86//86 
f 87//87 86//86 128//128 
f 90//90 87//87 128//128 129//129 
f 126//126 89//89 88//88 125//125 
f 125//125 88//88 114//114 
f 129//129 127//127 89//89 126//126 
f 91//91 90//90 129//129 126//126 
f 113//113 121//121 130//130 95//95 93//93 
f 95//95 131//131 132//132 94//94 
f 94//94 132//132 96//96 
f 130//130 131//131 95//95 
f 96//96 132//132 133//133 97//97 
f 133//133 134//134 97//97 
f 134//134 135//135 106//106 97//97 
f 115//115 98//98 105//105 
f 108//108 100//100 99//99 
f 101//101 100//100 136//136 
f 108//108 137//137 100//100 
f 100//100 137//137 136//136 
f 104//104 101//101 136//136 
f 102//102 137//137 108//108 
f 137//137 102//102 103//103 
f 138//138 137//137 103//103 107//107 
f 134//134 105//105 104//104 135//135 
f 135//135 104//104 136//136 138//138 
f 115//115 105//105 134//134 
f 135//135 138//138 107//107 106//106 
f 124//124 139//139 109//109 110//110 
f 139//139 111//111 109//109 
f 124//124 110//110 123//123 
f 123//123 110//110 122//122 
f 110//110 140//140 141//141 122//122 
f 110//110 112//112 140//140 
f 125//125 114//114 111//111 139//139 
f 140//140 112//112 113//113 
f 113//113 119//119 140//140 
f 142//142 116//116 115//115 134//134 
f 117//117 116//116 142//142 
f 118//118 117//117 142//142 133//133 
f 132//132 118//118 133//133 
f 131//131 118//118 132//132 
f 131//131 141//141 140//140 118//118 
f 140//140 119//119 118//118 
f 122//122 141//141 121//121 120//120 
f 130//130 121//121 141//141 131//131 
f 124//124 125//125 139//139 
f 128//128 127//127 129//129 
f 142//142 134//134 133//133 
f 138//138 136//136 137//137 
