#  wavefront obj file written by the visualization toolkit

mtllib videoMuscle_cerv4.mtl

v -0.018045999109745026 0.008710999973118305 0.00014000000373926014
v -0.01028400007635355 0.015588999725878239 0.00014000000373926014
v -0.00964299961924553 0.01568800024688244 -0.0038960000965744257
v 0.020534999668598175 0.009669999592006207 -0.007017999887466431
v 0.021414000540971756 0.009417999535799026 0.00014000000373926014
v 0.019758999347686768 -0.0041959998197853565 0.00014000000373926014
v 0.01975799910724163 -0.00434499979019165 -0.0020169999916106462
v 0.018472999334335327 -0.004174999892711639 -0.007964000105857849
v 0.01561800017952919 -0.0023360000923275948 -0.01398599985986948
v 0.01744299940764904 0.011358999647200108 -0.010929999873042107
v 0.012028999626636505 -0.0014039999805390835 -0.015622000209987164
v 0.009358000010251999 0.004356999881565571 -0.017152000218629837
v 0.015316000208258629 0.01312199980020523 -0.012436999939382076
v 0.00761799979954958 0.01477499958127737 -0.004809999838471413
v 0.009151999838650227 0.013195999898016453 0.00014000000373926014
v 0.01126800011843443 0.017145000398159027 -0.012524999678134918
v 0.00801400002092123 0.019721999764442444 -0.010874999687075615
v 0.005260999780148268 0.01604899950325489 -0.009221999906003475
v 0.011223999783396721 0.010968999937176704 -0.01609800010919571
v 0.008868999779224396 0.006777000147849321 -0.02115499973297119
v 0.009025000035762787 0.00810100045055151 -0.021709000691771507
v 0.007528999820351601 0.008724999614059925 -0.02190300077199936
v 0.0072189997881650925 0.009769000113010406 -0.01822499930858612
v 0.00928100012242794 0.018559999763965607 -0.013357999734580517
v 0.005429999902844429 0.01745299994945526 -0.010242000222206116
v 0.00824700016528368 0.017882000654935837 -0.01464799977838993
v 0.004145999904721975 0.010348999872803688 -0.017037000507116318
v 0.0042420001700520515 0.013166000135242939 -0.01551899965852499
v 0.0029700000304728746 0.006858999840915203 -0.027406999841332436
v 0.004904000088572502 0.008338999934494495 -0.023513000458478928
v 0.006599999964237213 0.005412000231444836 -0.02368300035595894
v 0.006666999775916338 0.004124999977648258 -0.02449899911880493
v 0.003703000023961067 0.00533400010317564 -0.026899000629782677
v 0.0031659998930990696 0.014077999629080296 -0.02602499909698963
v 0.0020310000982135534 0.009421999566257 -0.022825999185442924
v 0.001841000048443675 0.01217500027269125 -0.019971000030636787
v 0.0007169999880716205 0.016436999663710594 -0.01759199984371662
v 0.0037750001065433025 0.018288999795913696 -0.02201700024306774
v 0.0016499999910593033 0.016489999368786812 -0.023925000801682472
v 0.002819000044837594 0.01295700017362833 -0.012254999950528145
v -0.001475999946705997 0.014018000103533268 -0.012800999917089939
v 0.0066019999794662 0.014644999988377094 -0.002228999976068735
v -0.000007999999979801942 -0.000014000000192027073 -0.003823000006377697
v -0.0001230000052601099 -0.0007009999826550484 0.00014000000373926014
v -0.0011790000135079026 0.0012870000209659338 -0.009159999899566174
v 0.002655999967828393 0.00621799984946847 -0.01018999982625246
v -0.00037399999564513564 0.012381000444293022 -0.01143800001591444
v -0.004257999826222658 0.018257999792695045 -0.011363999918103218
v -0.009181000292301178 0.004995000082999468 -0.009171999990940094
v -0.010525000281631947 0.014936000108718872 -0.0013849999522790313
v -0.015381000004708767 0.0005569999921135604 -0.0019779999274760485
v -0.010604999959468842 0.015731999650597572 -0.004623999819159508
v -0.032203998416662216 0.006990999914705753 0.00014000000373926014
v -0.03239100053906441 0.00495600001886487 -0.0032889998983591795
v -0.038607001304626465 0.0025339999701827765 -0.004023000132292509
v -0.037422001361846924 0.006703999824821949 0.00014000000373926014
v -0.019008999690413475 0.008705000393092632 0.00014000000373926014
v -0.026823999360203743 0.004110000096261501 -0.003498000092804432
v -0.021051999181509018 0.004387999884784222 -0.004912999924272299
v -0.013256999664008617 0.010364999994635582 -0.011012000031769276
v -0.006498999893665314 0.014264999888837337 -0.021333999931812286
v -0.03074900060892105 -0.0019039999460801482 -0.00521400012075901
v -0.034797001630067825 -0.0032160000409930944 -0.00507699977606535
v -0.024181999266147614 0.00011800000356743112 -0.005361999850720167
v -0.021609000861644745 -0.00015700000221841037 -0.006225999910384417
v -0.015790000557899475 0.0031129999551922083 -0.011435000225901604
v -0.01438200008124113 0.003633999964222312 -0.016220999881625175
v -0.009922999888658524 0.00938700046390295 -0.022931000217795372
v -0.013282000087201595 0.0037640000227838755 -0.021517999470233917
v -0.003742000088095665 0.012547999620437622 -0.023228000849485397
v -0.001820000004954636 0.011398999951779842 -0.026208000257611275
v 0.0005380000220611691 0.0060430001467466354 -0.027959000319242477
v -0.034800998866558075 -0.003220000071451068 0.00014000000373926014
v -0.03075299970805645 -0.001908999984152615 0.00014000000373926014
v -0.02418600022792816 0.00011300000187475234 0.00014000000373926014
v -0.02161400020122528 -0.0001630000042496249 0.00014000000373926014
v -0.015382000245153904 0.0005549999768845737 0.00014000000373926014
v -0.039021000266075134 -0.0006360000115819275 -0.003924999851733446
v -0.00964299961924553 0.01568800024688244 0.004176999907940626
v 0.01975799910724163 -0.00434499979019165 0.002297000028192997
v 0.020534999668598175 0.009669999592006207 0.007298000156879425
v 0.018472999334335327 -0.004174999892711639 0.008244999684393406
v 0.01744299940764904 0.011358999647200108 0.011210000142455101
v 0.01561800017952919 -0.0023360000923275948 0.014267000369727612
v 0.012028999626636505 -0.0014039999805390835 0.015901999548077583
v 0.015316000208258629 0.01312199980020523 0.01271700020879507
v 0.009358000010251999 0.004356999881565571 0.01743200048804283
v 0.00761799979954958 0.01477499958127737 0.005090000107884407
v 0.00801400002092123 0.019721999764442444 0.011156000196933746
v 0.01126800011843443 0.017145000398159027 0.012804999947547913
v 0.005260999780148268 0.01604899950325489 0.00950200017541647
v 0.011223999783396721 0.010968999937176704 0.016378000378608704
v 0.009025000035762787 0.00810100045055151 0.021988999098539352
v 0.008868999779224396 0.006777000147849321 0.021436000242829323
v 0.0072189997881650925 0.009769000113010406 0.018504999577999115
v 0.007528999820351601 0.008724999614059925 0.022182999178767204
v 0.00928100012242794 0.018559999763965607 0.013639000244438648
v 0.005429999902844429 0.01745299994945526 0.010522999800741673
v 0.00824700016528368 0.017882000654935837 0.014928000047802925
v 0.004145999904721975 0.010348999872803688 0.017317000776529312
v 0.0042420001700520515 0.013166000135242939 0.01579900085926056
v 0.006599999964237213 0.005412000231444836 0.023948999121785164
v 0.00496200006455183 0.007141999900341034 0.023096000775694847
v 0.0029700000304728746 0.006858999840915203 0.027652999386191368
v 0.003703000023961067 0.00533400010317564 0.027163999155163765
v 0.006666999775916338 0.004124999977648258 0.024764999747276306
v 0.0019120000069960952 0.011845000088214874 0.02366800047457218
v 0.0031659998930990696 0.014077999629080296 0.026271000504493713
v 0.0007169999880716205 0.016436999663710594 0.017872000113129616
v 0.001841000048443675 0.01217500027269125 0.020251000300049782
v 0.0037750001065433025 0.018288999795913696 0.02226400002837181
v 0.0016499999910593033 0.016489999368786812 0.024172000586986542
v 0.002819000044837594 0.01295700017362833 0.01253500021994114
v -0.001475999946705997 0.014018000103533268 0.013081000186502934
v 0.0066019999794662 0.014644999988377094 0.002509000012651086
v -0.000007999999979801942 -0.000014000000192027073 0.004102999810129404
v -0.0011790000135079026 0.0012870000209659338 0.009440000168979168
v 0.002655999967828393 0.00621799984946847 0.010470000095665455
v -0.00037399999564513564 0.012381000444293022 0.011718000285327435
v -0.009181000292301178 0.004995000082999468 0.009452000260353088
v -0.004257999826222658 0.018257999792695045 0.011644000187516212
v -0.010525000281631947 0.014936000108718872 0.001664999988861382
v -0.015381000004708767 0.0005569999921135604 0.002257999964058399
v -0.010604999959468842 0.015731999650597572 0.004904000088572502
v -0.038607001304626465 0.0025339999701827765 0.004304000176489353
v -0.03239100053906441 0.00495600001886487 0.0035689999349415302
v -0.026823999360203743 0.004110000096261501 0.003777999896556139
v -0.021051999181509018 0.004387999884784222 0.005193000193685293
v -0.013256999664008617 0.010364999994635582 0.011292999610304832
v -0.006498999893665314 0.014264999888837337 0.02161400020122528
v -0.034797001630067825 -0.0032160000409930944 0.005357000045478344
v -0.03074900060892105 -0.0019039999460801482 0.005493999924510717
v -0.024181999266147614 0.00011800000356743112 0.0056420001201331615
v -0.021609000861644745 -0.00015700000221841037 0.006506000179797411
v -0.015790000557899475 0.0031129999551922083 0.01171599980443716
v -0.013282000087201595 0.0037640000227838755 0.02179799973964691
v -0.009922999888658524 0.00938700046390295 0.023211000487208366
v -0.01438200008124113 0.003633999964222312 0.01650100015103817
v -0.0038620000705122948 0.014998000115156174 0.024080000817775726
v -0.001820000004954636 0.011398999951779842 0.02647400088608265
v 0.0005380000220611691 0.0060430001467466354 0.02820499986410141
v -0.039021000266075134 -0.0006360000115819275 0.0042050001211464405
vn -0.46919289231300354 0.8830957412719727 0
vn 0.9751858711242676 -0.22138796746730804 0
vn -0.3648000657558441 0.7741331458091736 0.5173380970954895
vn 0.8889140486717224 0.42626503109931946 -0.1677200198173523
vn 0.8402631282806396 0.5415660738945007 0.02577100321650505
vn 0.5843831300735474 -0.8086971044540405 -0.06712201237678528
vn 0.8081017136573792 -0.5700058341026306 -0.14854294061660767
vn 0.4970589876174927 -0.7808240056037903 -0.37847900390625
vn 0.2915419340133667 -0.680473804473877 -0.6722788214683533
vn 0.7010089755058289 0.509555995464325 -0.4989379942417145
vn 0.12071003019809723 -0.43366509675979614 -0.8929522633552551
vn 0.18835900723934174 -0.47587400674819946 -0.8591070175170898
vn 0.7460511326789856 0.49261409044265747 -0.44803908467292786
vn 0.2876230478286743 0.9206222295761108 0.26406005024909973
vn 0.053477007895708084 0.997430145740509 0.04768000915646553
vn 0.6597170233726501 0.6600289940834045 -0.3593539893627167
vn 0.3627878725528717 0.8179677128791809 0.44644585251808167
vn -0.5651732087135315 0.7457183003425598 0.3528221547603607
vn 0.6583746075630188 0.3399727940559387 -0.6715365648269653
vn 0.3804710805416107 -0.8026411533355713 -0.4593571126461029
vn 0.6809321641921997 0.43310311436653137 -0.5905531644821167
vn 0.4070436954498291 0.7128714919090271 -0.5710775852203369
vn 0.31241005659103394 0.7790601849555969 -0.5435671210289001
vn 0.384179949760437 0.9225578904151917 0.035954996943473816
vn -0.40492013096809387 0.8763412237167358 0.2608940899372101
vn -0.21520893275737762 0.6482947468757629 -0.7303417325019836
vn 0.176703080534935 0.7711102962493896 -0.6116902232170105
vn 0.05210401117801666 0.9268321990966797 -0.3718430697917938
vn 0.47664108872413635 0.17211702466011047 -0.862084150314331
vn 0.7078050971031189 0.5737411379814148 -0.41210806369781494
vn 0.5985937714576721 0.3332078754901886 -0.7284627556800842
vn 0.2202690690755844 -0.8923863172531128 -0.39386314153671265
vn -0.0443120114505291 -0.913885235786438 -0.403547078371048
vn 0.7458891272544861 0.4458460807800293 -0.49484407901763916
vn 0.7401189804077148 0.6709719896316528 -0.04495000094175339
vn 0.48092395067214966 -0.8762748837471008 -0.029232995584607124
vn 0.3801460564136505 0.8630181550979614 0.3326990604400635
vn 0.4724888801574707 0.8775337338447571 0.08178497850894928
vn 0.16063109040260315 0.6192963719367981 -0.7685503959655762
vn -0.33665385842323303 0.9367455840110779 0.0957709550857544
vn 0.39912503957748413 0.8699420690536499 0.28965502977371216
vn -0.26916393637657166 0.8544098138809204 0.44444888830184937
vn -0.8772000670433044 -0.45707303285598755 0.1469840109348297
vn -0.9842113256454468 -0.16953204572200775 0.05086301639676094
vn -0.6429708003997803 -0.6251018047332764 -0.4425338804721832
vn -0.4198629856109619 0.48969900608062744 0.7641400098800659
vn 0.027866991236805916 0.8520796895027161 0.522669792175293
vn 0.38249915838241577 0.9187013506889343 0.09839903563261032
vn 0.7499133944511414 -0.5148212909698486 0.4154382348060608
vn 0.9210326075553894 -0.12892994284629822 0.3675268292427063
vn 0.7395400404930115 -0.671362042427063 0.048513006418943405
vn -0.6869329810142517 0.6121950149536133 0.3915869891643524
vn -0.1024169847369194 0.9937718510627747 -0.043911997228860855
vn -0.04863398149609566 0.4855848252773285 -0.8728356957435608
vn -0.49832311272621155 0.3972871005535126 -0.7706081867218018
vn -0.9959690570831299 0.07989200949668884 0.040779002010822296
vn -0.2869490385055542 0.957088053226471 -0.0405300036072731
vn -0.10861001908779144 0.45593708753585815 -0.8833602070808411
vn -0.5054808855056763 0.5651338696479797 -0.6520068049430847
vn -0.8779900074005127 0.38091200590133667 -0.28989601135253906
vn -0.4840540885925293 0.8307931423187256 -0.2747260630130768
vn 0.09450998157262802 -0.563677966594696 -0.8205698728561401
vn -0.33064696192741394 -0.27426695823669434 -0.9030228853225708
vn -0.342038094997406 -0.6243541240692139 -0.7022761702537537
vn -0.3717299699783325 -0.7701628804206848 -0.518329918384552
vn -0.8432014584541321 0.13676106929779053 -0.5199112892150879
vn -0.8206368088722229 0.5455008745193481 -0.17024695873260498
vn -0.6812453269958496 0.5103292465209961 -0.5248512625694275
vn -0.6586083173751831 -0.15771105885505676 -0.7357733249664307
vn -0.47241702675819397 0.7765300869941711 -0.4169210195541382
vn -0.3024371266365051 0.3875591456890106 -0.8708212971687317
vn -0.026047006249427795 -0.5926481485366821 -0.805040180683136
vn -0.4791099429130554 -0.8777548670768738 0.000002999999651365215
vn 0.3012678623199463 -0.9535395503044128 0.000004999997599952621
vn 0.0957469791173935 -0.9954057335853577 -9.999997701015673e-7
vn 0.0038639982230961323 -0.9999925494194031 -0.000003999998170911567
vn 0.6281960606575012 -0.7780550718307495 0
vn -0.9662821292877197 -0.25359204411506653 0.04460900276899338
vn -0.38031691312789917 0.7755308151245117 -0.5038958787918091
vn 0.8216701745986938 -0.5664831399917603 0.06288901716470718
vn 0.8919491171836853 0.40742406249046326 0.1960420310497284
vn 0.4879908859729767 -0.7963207960128784 0.3574049174785614
vn 0.7051527500152588 0.49178481101989746 0.5107908248901367
vn 0.2733639180660248 -0.6982667446136475 0.6615857481956482
vn 0.12302995473146439 -0.43112385272979736 0.893865704536438
vn 0.7796028852462769 0.4780559539794922 0.4045759439468384
vn 0.18840906023979187 -0.47398215532302856 0.8601412177085876
vn 0.2938520014286041 0.9166799783706665 -0.2708300054073334
vn 0.12183400988578796 0.8344560861587524 -0.5374380350112915
vn 0.6895244121551514 0.6548224091529846 0.3094571828842163
vn -0.6622262597084045 0.649844229221344 -0.373040109872818
vn 0.5828500390052795 0.37230801582336426 0.7222690582275391
vn 0.3702439069747925 0.49682289361953735 0.7849118113517761
vn 0.05776297673583031 -0.8032336831092834 0.592856764793396
vn 0.17844510078430176 0.8626105189323425 0.47335025668144226
vn 0.25028708577156067 0.6377971768379211 0.7284032106399536
vn 0.06235797703266144 0.9836076498031616 0.1691969335079193
vn -0.6541200876235962 0.7256030440330505 -0.21360503137111664
vn -0.2175559550523758 0.576654851436615 0.7874888181686401
vn 0.13990101218223572 0.7613441348075867 0.6330740451812744
vn -0.07062000781297684 0.9108911156654358 0.4065590500831604
vn 0.45467787981033325 0.4485168755054474 0.76948082447052
vn 0.7253840565681458 0.42378804087638855 0.5424220561981201
vn 0.5009508728981018 0.2507719397544861 0.8283488154411316
vn 0.014486005529761314 -0.9285653829574585 0.3708861172199249
vn -0.23186297714710236 -0.8366288542747498 0.49627792835235596
vn 0.8244451880455017 0.5659181475639343 -0.005172001197934151
vn 0.7712681889533997 0.50816810131073 0.383289098739624
vn 0.273624062538147 0.9217512011528015 -0.2747810482978821
vn 0.4616440236568451 -0.8717180490493774 -0.1642940193414688
vn 0.5989782810211182 0.7687163352966309 0.22427710890769958
vn 0.3521537780761719 0.5447787046432495 0.761054515838623
vn -0.41379421949386597 0.9084364771842957 0.05930803343653679
vn 0.258157879114151 0.801344633102417 -0.5396307706832886
vn -0.2990278899669647 0.8716037273406982 -0.38844484090805054
vn -0.8750330209732056 -0.47736498713493347 -0.08024899661540985
vn -0.643278956413269 -0.6249129176139832 0.44235295057296753
vn -0.2772499918937683 0.29108500480651855 -0.9156429767608643
vn 0.004433000460267067 0.4682120382785797 -0.8836050629615784
vn 0.5371950268745422 -0.5785319805145264 -0.6137769818305969
vn 0.307885080575943 0.8786652088165283 -0.36490312218666077
vn 0.9210326075553894 -0.12892994284629822 -0.3675268292427063
vn 0.7349309921264648 -0.6757789850234985 -0.05656199902296066
vn -0.7405139207839966 0.5716339349746704 -0.3533749580383301
vn -0.4648769497871399 0.350212961435318 0.8131668567657471
vn -0.01603900082409382 0.5365139842033386 0.8437389731407166
vn -0.06344597786664963 0.5086718201637268 0.8586196899414062
vn -0.38234618306159973 0.42206820845603943 0.8219914436340332
vn -0.8696793913841248 0.2721991240978241 0.41178321838378906
vn -0.5515360832214355 0.8024651408195496 0.22772303223609924
vn -0.33064401149749756 -0.2742699980735779 0.9030230045318604
vn 0.16087204217910767 -0.5819920897483826 0.7971231937408447
vn -0.07716402411460876 -0.7121622562408447 0.6977611780166626
vn -0.22326597571372986 -0.8157138824462891 0.5336319208145142
vn -0.8830251097679138 0.11986501514911652 0.4537610709667206
vn -0.721204936504364 -0.1908249706029892 0.6659199595451355
vn -0.7358964085578918 0.44819825887680054 0.5075182914733887
vn -0.8206380009651184 0.5454990267753601 0.17024700343608856
vn -0.4099901616573334 0.7003212571144104 0.5843442678451538
vn -0.23622794449329376 0.29246094822883606 0.9266407489776611
vn -0.02474900335073471 -0.5905040502548218 0.8066551089286804
vn -0.9662817716598511 -0.25359293818473816 -0.044611990451812744

g grp1
usemtl mtl1
f 1//1 2//2 3//3 
f 4//4 5//5 6//6 7//7 
f 8//8 4//4 7//7 
f 9//9 10//10 4//4 8//8 
f 11//11 10//10 9//9 
f 12//12 13//13 10//10 11//11 
f 13//13 14//14 10//10 
f 10//10 14//14 4//4 
f 14//14 15//15 5//5 4//4 
f 13//13 16//16 17//17 14//14 
f 17//17 18//18 14//14 
f 12//12 19//19 13//13 
f 12//12 20//20 21//21 19//19 
f 21//21 22//22 23//23 19//19 
f 16//16 24//24 17//17 
f 24//24 25//25 18//18 17//17 
f 19//19 26//26 24//24 16//16 
f 19//19 23//23 26//26 
f 23//23 27//27 26//26 
f 27//27 28//28 26//26 
f 29//29 30//30 31//31 
f 32//32 33//33 29//29 31//31 
f 30//30 34//34 35//35 
f 27//27 36//36 37//37 28//28 
f 36//36 38//38 37//37 
f 36//36 39//39 38//38 
f 36//36 35//35 34//34 39//39 
f 24//24 26//26 40//40 25//25 
f 26//26 28//28 40//40 
f 28//28 37//37 41//41 40//40 
f 14//14 42//42 15//15 
f 14//14 18//18 42//42 
f 42//42 18//18 43//43 44//44 
f 18//18 45//45 43//43 
f 18//18 46//46 45//45 
f 18//18 25//25 47//47 46//46 
f 25//25 40//40 47//47 
f 40//40 41//41 47//47 
f 47//47 41//41 48//48 49//49 
f 48//48 50//50 49//49 
f 49//49 50//50 51//51 
f 48//48 3//3 50//50 
f 48//48 52//52 3//3 
f 51//51 50//50 2//2 
f 47//47 49//49 46//46 
f 46//46 49//49 45//45 
f 53//53 54//54 55//55 56//56 
f 57//57 58//58 54//54 53//53 
f 59//59 58//58 57//57 
f 3//3 57//57 1//1 
f 3//3 60//60 59//59 57//57 
f 48//48 61//61 60//60 52//52 
f 58//58 62//62 63//63 
f 54//54 58//58 63//63 
f 58//58 59//59 64//64 62//62 
f 59//59 60//60 65//65 64//64 
f 60//60 66//66 65//65 
f 60//60 61//61 66//66 
f 67//67 68//68 69//69 
f 66//66 61//61 68//68 
f 66//66 68//68 67//67 
f 61//61 70//70 68//68 
f 70//70 71//71 68//68 
f 68//68 71//71 69//69 
f 71//71 72//72 69//69 
f 71//71 29//29 72//72 
f 34//34 29//29 71//71 
f 39//39 34//34 71//71 
f 48//48 41//41 61//61 
f 61//61 37//37 38//38 70//70 
f 37//37 61//61 41//41 
f 13//13 19//19 16//16 
f 39//39 70//70 38//38 
f 71//71 70//70 39//39 
f 8//8 43//43 45//45 9//9 
f 9//9 45//45 11//11 
f 11//11 45//45 12//12 
f 36//36 45//45 49//49 
f 33//33 72//72 29//29 
f 36//36 69//69 72//72 
f 36//36 49//49 66//66 69//69 
f 49//49 51//51 65//65 66//66 
f 45//45 36//36 12//12 
f 36//36 72//72 33//33 
f 73//73 56//56 63//63 
f 73//73 63//63 62//62 74//74 
f 74//74 62//62 64//64 75//75 
f 75//75 64//64 65//65 76//76 
f 65//65 51//51 77//77 76//76 
f 77//77 51//51 2//2 
f 55//55 78//78 56//56 
f 78//78 63//63 56//56 
f 66//66 67//67 69//69 
f 63//63 55//55 54//54 
f 78//78 55//55 63//63 
f 43//43 8//8 7//7 6//6 44//44 
f 60//60 3//3 52//52 
f 2//2 50//50 3//3 
f 30//30 29//29 34//34 
f 15//15 42//42 44//44 
f 35//35 36//36 23//23 22//22 
f 36//36 27//27 23//23 
f 20//20 32//32 31//31 21//21 
f 30//30 35//35 22//22 
f 31//31 30//30 22//22 21//21 
f 32//32 20//20 36//36 
f 20//20 12//12 36//36 
f 36//36 33//33 32//32 
f 79//79 2//2 1//1 
f 80//80 6//6 5//5 81//81 
f 80//80 81//81 82//82 
f 82//82 81//81 83//83 84//84 
f 84//84 83//83 85//85 
f 85//85 83//83 86//86 87//87 
f 83//83 88//88 86//86 
f 81//81 88//88 83//83 
f 81//81 5//5 15//15 88//88 
f 88//88 89//89 90//90 86//86 
f 88//88 91//91 89//89 
f 86//86 92//92 87//87 
f 92//92 93//93 94//94 87//87 
f 92//92 95//95 96//96 93//93 
f 89//89 97//97 90//90 
f 89//89 91//91 98//98 97//97 
f 90//90 97//97 99//99 92//92 
f 99//99 95//95 92//92 
f 99//99 100//100 95//95 
f 99//99 101//101 100//100 
f 102//102 103//103 104//104 
f 102//102 104//104 105//105 106//106 
f 107//107 108//108 103//103 
f 101//101 109//109 110//110 100//100 
f 109//109 111//111 110//110 
f 111//111 112//112 110//110 
f 112//112 108//108 107//107 110//110 
f 98//98 113//113 99//99 97//97 
f 113//113 101//101 99//99 
f 113//113 114//114 109//109 101//101 
f 15//15 115//115 88//88 
f 115//115 91//91 88//88 
f 44//44 116//116 91//91 115//115 
f 116//116 117//117 91//91 
f 117//117 118//118 91//91 
f 118//118 119//119 98//98 91//91 
f 119//119 113//113 98//98 
f 119//119 114//114 113//113 
f 120//120 121//121 114//114 119//119 
f 120//120 122//122 121//121 
f 123//123 122//122 120//120 
f 122//122 79//79 121//121 
f 79//79 124//124 121//121 
f 2//2 122//122 123//123 
f 118//118 120//120 119//119 
f 117//117 120//120 118//118 
f 56//56 125//125 126//126 53//53 
f 53//53 126//126 127//127 57//57 
f 57//57 127//127 128//128 
f 1//1 57//57 79//79 
f 57//57 128//128 129//129 79//79 
f 124//124 129//129 130//130 121//121 
f 131//131 132//132 127//127 
f 131//131 127//127 126//126 
f 132//132 133//133 128//128 127//127 
f 133//133 134//134 129//129 128//128 
f 134//134 135//135 129//129 
f 135//135 130//130 129//129 
f 136//136 137//137 138//138 
f 137//137 130//130 135//135 
f 138//138 137//137 135//135 
f 137//137 139//139 130//130 
f 137//137 140//140 139//139 
f 136//136 140//140 137//137 
f 136//136 141//141 140//140 
f 141//141 104//104 140//140 
f 140//140 104//104 108//108 
f 140//140 108//108 112//112 
f 130//130 114//114 121//121 
f 139//139 111//111 109//109 130//130 
f 114//114 130//130 109//109 
f 90//90 92//92 86//86 
f 111//111 139//139 112//112 
f 112//112 139//139 140//140 
f 84//84 117//117 116//116 82//82 
f 85//85 117//117 84//84 
f 87//87 117//117 85//85 
f 120//120 117//117 110//110 
f 104//104 141//141 105//105 
f 141//141 136//136 110//110 
f 136//136 135//135 120//120 110//110 
f 135//135 134//134 123//123 120//120 
f 87//87 110//110 117//117 
f 105//105 141//141 110//110 
f 131//131 56//56 73//73 
f 74//74 132//132 131//131 73//73 
f 75//75 133//133 132//132 74//74 
f 76//76 134//134 133//133 75//75 
f 76//76 77//77 123//123 134//134 
f 2//2 123//123 77//77 
f 56//56 142//142 125//125 
f 56//56 131//131 142//142 
f 136//136 138//138 135//135 
f 126//126 125//125 131//131 
f 131//131 125//125 142//142 
f 44//44 6//6 80//80 82//82 116//116 
f 124//124 79//79 129//129 
f 79//79 122//122 2//2 
f 108//108 104//104 103//103 
f 44//44 115//115 15//15 
f 96//96 95//95 110//110 107//107 
f 95//95 100//100 110//110 
f 93//93 102//102 106//106 94//94 
f 96//96 107//107 103//103 
f 93//93 96//96 103//103 102//102 
f 110//110 94//94 106//106 
f 110//110 87//87 94//94 
f 106//106 105//105 110//110 
