#  wavefront obj file written by the visualization toolkit

mtllib videoMuscle_cerv5.mtl

v -0.0204050000756979 0.01620900072157383 0.0001500000071246177
v -0.00931399967521429 0.016840999945998192 0.0001500000071246177
v -0.008669000118970871 0.01690400019288063 -0.00418000016361475
v 0.02116299979388714 0.009185000322759151 -0.007528000045567751
v 0.022027000784873962 0.00888300035148859 0.0001500000071246177
v 0.019673999398946762 -0.004612999968230724 0.0001500000071246177
v 0.019665999338030815 -0.004761999938637018 -0.00216299993917346
v 0.018391000106930733 -0.004519000183790922 -0.008542999625205994
v 0.015634000301361084 -0.0025220001116394997 -0.015003000386059284
v 0.018161000683903694 0.011045999825000763 -0.011725000105798244
v 0.012097000144422054 -0.0013879999751225114 -0.016757000237703323
v 0.009724999777972698 0.004515000153332949 -0.01839900016784668
v 0.016126999631524086 0.012927000410854816 -0.01334100030362606
v 0.008523999713361263 0.015014000236988068 -0.005158999934792519
v 0.009974000044167042 0.01334999967366457 0.0001500000071246177
v 0.012292000465095043 0.017172999680042267 -0.013435999862849712
v 0.009173999540507793 0.019929999485611916 -0.01166599988937378
v 0.0062350002117455006 0.016419000923633575 -0.009891999885439873
v 0.01193000003695488 0.011009999550879002 -0.017268000170588493
v 0.009362000040709972 0.006957999896258116 -0.022306999191641808
v 0.009585999883711338 0.008270000107586384 -0.0228899996727705
v 0.008123000152409077 0.008976999670267105 -0.02309500053524971
v 0.00786800030618906 0.01003899984061718 -0.019548999145627022
v 0.010378999635577202 0.01869799941778183 -0.014329000376164913
v 0.006477000191807747 0.01781100034713745 -0.010986999608576298
v 0.009310999885201454 0.018079999834299088 -0.015713000670075417
v 0.004827999975532293 0.010792000219225883 -0.018275000154972076
v 0.00506900018081069 0.013598999939858913 -0.01664699986577034
v 0.00368200009688735 0.00851800013333559 -0.029750000685453415
v 0.005487999878823757 0.011156000196933746 -0.024970000609755516
v 0.007034999784082174 0.009314999915659428 -0.025902999565005302
v 0.007036000024527311 0.008009999990463257 -0.026796000078320503
v 0.004137999843806028 0.009402000345289707 -0.029419999569654465
v 0.004255000036209822 0.01573600061237812 -0.02824999950826168
v 0.0026740001048892736 0.012411000207066536 -0.024241000413894653
v 0.0026199999265372753 0.012745000422000885 -0.02105800062417984
v 0.0017160000279545784 0.017062000930309296 -0.018549000844359398
v 0.00508200004696846 0.019919000566005707 -0.023899000138044357
v 0.0028669999446719885 0.01823600009083748 -0.025970999151468277
v 0.003636999987065792 0.0134699996560812 -0.013144999742507935
v -0.0006000000284984708 0.013921000063419342 -0.013731000013649464
v 0.00750300008803606 0.014941999688744545 -0.002391000045463443
v 0.00014600000577047467 0.0006830000202171504 -0.004100999794900417
v -0.000004999999873689376 0.000003000000106112566 0.0001500000071246177
v -0.0009560000034980476 0.0020469999872148037 -0.00982499960809946
v 0.0031270000617951155 0.0067529999651014805 -0.010931000113487244
v 0.0004180000105407089 0.013075999915599823 -0.012268999591469765
v -0.0031610000878572464 0.0183119997382164 -0.012190000154078007
v -0.00875800009816885 0.006202000193297863 -0.009837999939918518
v -0.009588999673724174 0.016202999278903008 -0.0014850000152364373
v -0.015178999863564968 0.0021230001002550125 -0.002122000092640519
v -0.009627999737858772 0.01700199954211712 -0.0049600000493228436
v -0.03737799823284149 0.016954999417066574 0.0001500000071246177
v -0.037668000906705856 0.014933999627828598 -0.0035280000884085894
v -0.04499699920415878 0.01451599970459938 -0.004315999802201986
v -0.0435979999601841 0.0186110008507967 0.0001500000071246177
v -0.021366000175476074 0.016256999224424362 0.0001500000071246177
v -0.032152000814676285 0.013774000108242035 -0.003751999931409955
v -0.02475300058722496 0.012072999961674213 -0.005270000081509352
v -0.012552999891340733 0.011793999932706356 -0.011812999844551086
v -0.005601999815553427 0.015302999876439571 -0.022494999691843987
v -0.038196999579668045 0.006630000192672014 -0.00559299997985363
v -0.04230400174856186 0.006730000022798777 -0.005446000024676323
v -0.03153499960899353 0.007751999888569117 -0.005750999785959721
v -0.025544999167323112 0.0070420000702142715 -0.006678000092506409
v -0.015456000342965126 0.00469799991697073 -0.012267000041902065
v -0.014023000374436378 0.005138999782502651 -0.017400000244379044
v -0.009273000061511993 0.010627999901771545 -0.02417900040745735
v -0.012916999869048595 0.005206000059843063 -0.02268899977207184
v -0.002930999966338277 0.01588599942624569 -0.024668000638484955
v -0.0010689999908208847 0.0149940000846982 -0.028665000572800636
v 0.0012110000243410468 0.00783700030297041 -0.030348999425768852
v -0.04230799898505211 0.006725999992340803 0.0001500000071246177
v -0.03820100054144859 0.006626000162214041 0.0001500000071246177
v -0.03153900057077408 0.007747999858111143 0.0001500000071246177
v -0.025550000369548798 0.007036999799311161 0.0001500000071246177
v -0.015180000104010105 0.002122000092640519 0.0001500000071246177
v -0.046390000730752945 0.009545999579131603 -0.004209999926388264
v -0.008669000118970871 0.01690400019288063 0.004480000119656324
v 0.019665999338030815 -0.004761999938637018 0.002463999902829528
v 0.02116299979388714 0.009185000322759151 0.007829000242054462
v 0.018391000106930733 -0.004519000183790922 0.008844000287353992
v 0.018161000683903694 0.011045999825000763 0.012024999596178532
v 0.015634000301361084 -0.0025220001116394997 0.015304000116884708
v 0.012097000144422054 -0.0013879999751225114 0.017057999968528748
v 0.016126999631524086 0.012927000410854816 0.013640999794006348
v 0.009724999777972698 0.004515000153332949 0.018698999658226967
v 0.008523999713361263 0.015014000236988068 0.00546000013127923
v 0.009173999540507793 0.019929999485611916 0.011966000311076641
v 0.012292000465095043 0.017172999680042267 0.013736000284552574
v 0.0062350002117455006 0.016419000923633575 0.010192999616265297
v 0.01193000003695488 0.011009999550879002 0.017568999901413918
v 0.009585999883711338 0.008270000107586384 0.02318600006401539
v 0.009362000040709972 0.006957999896258116 0.022602999582886696
v 0.00786800030618906 0.010037999600172043 0.019511999562382698
v 0.008123000152409077 0.008976999670267105 0.0233910009264946
v 0.010378999635577202 0.01869799941778183 0.014630000106990337
v 0.006477000191807747 0.01781100034713745 0.011288000270724297
v 0.009310999885201454 0.018079999834299088 0.016013000160455704
v 0.004827999975532293 0.010792000219225883 0.0185759998857975
v 0.00506900018081069 0.013598999939858913 0.016947999596595764
v 0.007034999784082174 0.009314999915659428 0.026194000616669655
v 0.005487999878823757 0.011156000196933746 0.02526099979877472
v 0.00368200009688735 0.00851800013333559 0.030017999932169914
v 0.004137999843806028 0.009402000345289707 0.029711000621318817
v 0.007036000024527311 0.008009999990463257 0.02708600088953972
v 0.0026740001048892736 0.012411000207066536 0.024531999602913857
v 0.004255000036209822 0.01573600061237812 0.02851800061762333
v 0.0017170000355690718 0.017062000930309296 0.018844999372959137
v 0.0026199999265372753 0.012745000422000885 0.02135399915277958
v 0.00508200004696846 0.019919000566005707 0.024166999384760857
v 0.0028669999446719885 0.01823600009083748 0.026239000260829926
v 0.003636999987065792 0.0134699996560812 0.013446000404655933
v -0.0006000000284984708 0.013921000063419342 0.014031999744474888
v 0.00750300008803606 0.014941999688744545 0.0026910000015050173
v 0.00014600000577047467 0.0006830000202171504 0.004401000216603279
v -0.0009560000034980476 0.0020469999872148037 0.01012600027024746
v 0.0031270000617951155 0.0067529999651014805 0.01123099960386753
v 0.0004180000105407089 0.013075999915599823 0.012570000253617764
v -0.00875800009816885 0.006202000193297863 0.010138999670743942
v -0.0031610000878572464 0.0183119997382164 0.012490999884903431
v -0.009588999673724174 0.016202999278903008 0.0017859999788925052
v -0.015178999863564968 0.0021230001002550125 0.0024220000486820936
v -0.009627999737858772 0.01700199954211712 0.005260000005364418
v -0.04499699920415878 0.01451599970459938 0.004616999998688698
v -0.037668000906705856 0.014933999627828598 0.003828000044450164
v -0.032152000814676285 0.013774000108242035 0.004052999895066023
v -0.02475300058722496 0.012072999961674213 0.005570999812334776
v -0.012552999891340733 0.011793999932706356 0.012113000266253948
v -0.005601999815553427 0.015302999876439571 0.022791000083088875
v -0.04230400174856186 0.006730000022798777 0.005745999980717897
v -0.038196999579668045 0.006630000192672014 0.0058929999358952045
v -0.03153499960899353 0.007751999888569117 0.006051999982446432
v -0.025544999167323112 0.0070420000702142715 0.006978999823331833
v -0.015456000342965126 0.00469799991697073 0.012567000463604927
v -0.012916999869048595 0.005206000059843063 0.022985000163316727
v -0.009273000061511993 0.010627999901771545 0.02447500079870224
v -0.014023000374436378 0.005138999782502651 0.01769999973475933
v -0.002930999966338277 0.01588599942624569 0.024958999827504158
v -0.0010689999908208847 0.0149940000846982 0.02895599976181984
v 0.0012110000243410468 0.00783700030297041 0.0306170005351305
v -0.046390000730752945 0.009545999579131603 0.004511000122874975
vn -0.004232000559568405 0.9999910593032837 -0.0000010000001111620804
vn 0.9907711744308472 -0.1355450302362442 0
vn 0.04676700010895729 0.9588599801063538 0.2800010144710541
vn 0.9123398661613464 0.37714993953704834 -0.15935498476028442
vn 0.8680272698402405 0.49593818187713623 0.023957008495926857
vn 0.5401811003684998 -0.8392021656036377 -0.06280301511287689
vn 0.7786512970924377 -0.611818253993988 -0.13921405375003815
vn 0.4635639488697052 -0.8093918561935425 -0.36054596304893494
vn 0.2735591232776642 -0.700928270816803 -0.6586843132972717
vn 0.7388410568237305 0.46918103098869324 -0.48371803760528564
vn 0.10913199931383133 -0.450096994638443 -0.8862860202789307
vn 0.1636749804019928 -0.4968399405479431 -0.852267861366272
vn 0.7801698446273804 0.45119187235832214 -0.43331390619277954
vn 0.3384300470352173 0.9077571630477905 0.24787504971027374
vn 0.09945497661828995 0.9940597414970398 0.04420298710465431
vn 0.6991896629333496 0.6262416839599609 -0.3448988199234009
vn 0.4104379415512085 0.8060908913612366 0.42633095383644104
vn -0.5279919505119324 0.7824758887290955 0.33008497953414917
vn 0.6890270113945007 0.30956900119781494 -0.6552929878234863
vn 0.3028098940849304 -0.8174347281455994 -0.49000683426856995
vn 0.8442497253417969 0.44150784611701965 -0.3038308918476105
vn 0.5382210612297058 0.8415980935096741 -0.04506400227546692
vn 0.3529658019542694 0.8381065130233765 -0.4159237742424011
vn 0.4409000277519226 0.8968720436096191 0.03503900393843651
vn -0.3529868721961975 0.903637707233429 0.24256791174411774
vn -0.17754393815994263 0.6776887774467468 -0.7135937809944153
vn 0.20895996689796448 0.7747998833656311 -0.596674919128418
vn 0.0718199610710144 0.9398854970932007 -0.3338518440723419
vn 0.48040199279785156 0.5579249858856201 -0.6767079830169678
vn 0.732481062412262 0.6803170442581177 -0.02530200406908989
vn 0.628273069858551 0.7586400508880615 -0.17244800925254822
vn -0.5654560327529907 -0.7117230892181396 0.41678503155708313
vn -0.33377590775489807 -0.5909059047698975 0.7344548106193542
vn 0.8001121282577515 0.3751200735569 -0.4680870771408081
vn 0.7286627888679504 0.6123527884483337 0.30671587586402893
vn 0.46941623091697693 -0.8681914210319519 -0.16091006994247437
vn 0.39500075578689575 0.8237075209617615 0.4067927598953247
vn 0.5786519646644592 0.8154558539390564 0.013918997719883919
vn 0.33006516098976135 0.6138612627983093 -0.7170993089675903
vn -0.3065328896045685 0.9505146145820618 0.05059098079800606
vn 0.3912319242954254 0.8922317624092102 0.22552193701267242
vn -0.22958791255950928 0.8751466870307922 0.42591986060142517
vn -0.9028342366218567 -0.40730607509613037 0.1378120332956314
vn -0.9932701587677002 -0.10578002035617828 0.0471700057387352
vn -0.688963770866394 -0.587611734867096 -0.42431285977363586
vn -0.3997839391231537 0.5279999375343323 0.7492589354515076
vn 0.018149008974432945 0.9374564290046692 0.347629189491272
vn 0.4966200888156891 0.8660731911659241 0.05732201039791107
vn 0.7155120372772217 -0.6106940507888794 0.33925703167915344
vn 0.9206781387329102 -0.180851012468338 0.34589701890945435
vn 0.5972949862480164 -0.8017029762268066 -0.02260899916291237
vn -0.6247552037239075 0.6879571676254272 0.3693181276321411
vn 0.0968499630689621 0.9951756596565247 -0.01567099429666996
vn 0.05788499116897583 0.5222609639167786 -0.8508188724517822
vn -0.37827590107917786 0.46358487010002136 -0.8012468218803406
vn -0.963108479976654 0.2646271288394928 0.048935022205114365
vn -0.0005779997445642948 0.9994786381721497 -0.0322829894721508
vn 0.0031310010235756636 0.46701616048812866 -0.8842432498931885
vn -0.20067308843135834 0.6020892262458801 -0.7727993130683899
vn -0.7256169319152832 0.48654693365097046 -0.48657193779945374
vn -0.4923851191997528 0.8565301895141602 -0.15463803708553314
vn -0.004598001018166542 -0.5950720906257629 -0.8036591410636902
vn -0.36782321333885193 -0.24502813816070557 -0.8970324993133545
vn -0.2251969426870346 -0.5930878520011902 -0.7730028033256531
vn -0.4454110264778137 -0.6199220418930054 -0.6459920406341553
vn -0.7988013029098511 0.1543840616941452 -0.5814481973648071
vn -0.805276095867157 0.5683141350746155 -0.16896602511405945
vn -0.7360250353813171 0.5470910668373108 -0.39869606494903564
vn -0.7038150429725647 -0.14599601924419403 -0.6952190399169922
vn -0.4942130744457245 0.8220941424369812 -0.282692015171051
vn -0.2992778718471527 0.4537968635559082 -0.8393456935882568
vn 0.12928004562854767 -0.9903542995452881 -0.04985101521015167
vn -0.6768869757652283 -0.7360870242118835 0.0000019999999949504854
vn 0.07115601748228073 -0.997465193271637 -0.0000010000002248489182
vn 0.024327002465724945 -0.9997040629386902 -0.000002000000222324161
vn -0.276729017496109 -0.9609480500221252 0
vn 0.3657810091972351 -0.9307010173797607 0
vn -0.9963269829750061 -0.08535899966955185 -0.006821000017225742
vn 0.04231899976730347 0.9608960151672363 -0.2736569941043854
vn 0.7912370562553406 -0.6086490750312805 0.05907900258898735
vn 0.9152037501335144 0.35729092359542847 0.18640094995498657
vn 0.45275384187698364 -0.8239626884460449 0.3407338857650757
vn 0.7425262331962585 0.45084714889526367 0.49537017941474915
vn 0.25379693508148193 -0.7182227969169617 0.6478758454322815
vn 0.11166896671056747 -0.447582870721817 0.8872427344322205
vn 0.8113548755645752 0.43485793471336365 0.3906429409980774
vn 0.16562893986701965 -0.4951688349246979 0.8528627157211304
vn 0.34529104828834534 0.9032201766967773 -0.25488707423210144
vn 0.16485194861888885 0.8411357998847961 -0.5150868892669678
vn 0.7275912165641785 0.6187122464179993 0.2963211238384247
vn -0.6323943734169006 0.6878753304481506 -0.35623717308044434
vn 0.6093700528144836 0.3493710160255432 0.7117640376091003
vn 0.703258752822876 0.6804527640342712 0.20593991875648499
vn 0.24524608254432678 -0.7794802784919739 0.5764241814613342
vn 0.22562099993228912 0.853115975856781 0.4704129993915558
vn 0.32316914200782776 0.9415203928947449 -0.09540003538131714
vn 0.11529196798801422 0.9812777638435364 0.154277965426445
vn -0.6134158968925476 0.7604588270187378 -0.2131279557943344
vn -0.18143601715564728 0.5978850722312927 0.7807781100273132
vn 0.1884010285139084 0.758837103843689 0.6234351396560669
vn -0.0992249846458435 0.9223178625106812 0.37347596883773804
vn 0.3710159659385681 0.9285109043121338 -0.014650997705757618
vn 0.6623111963272095 0.7351731657981873 -0.1444450318813324
vn 0.38797202706336975 0.5989780426025391 0.7005020380020142
vn -0.38443899154663086 -0.5688949823379517 -0.7270249724388123
vn -0.7279099822044373 -0.6249709725379944 -0.28206101059913635
vn 0.6513642072677612 0.6723241806030273 -0.351717084646225
vn 0.7803471684455872 0.5304551124572754 0.3311730921268463
vn 0.24112504720687866 0.9089891910552979 -0.3399960696697235
vn 0.47924715280532837 -0.8726372122764587 0.09394902735948563
vn 0.5388632416725159 0.8414163589477539 0.040558017790317535
vn 0.30925095081329346 0.777789831161499 0.5471808910369873
vn -0.40435585379600525 0.9100596904754639 0.09103797376155853
vn 0.22973591089248657 0.8226847052574158 -0.5200108289718628
vn -0.2571120858192444 0.8915812969207764 -0.37279510498046875
vn -0.9004180431365967 -0.42846402525901794 -0.07527200877666473
vn -0.6892810463905334 -0.5873180627822876 0.4242040514945984
vn -0.27076494693756104 0.3202309012413025 -0.9078207612037659
vn 0.004751000553369522 0.5640440583229065 -0.8257310390472412
vn 0.4135230481624603 -0.6387680768966675 -0.6488250494003296
vn 0.45411401987075806 0.8155250549316406 -0.35874703526496887
vn 0.9206783175468445 -0.1808500587940216 -0.3458970785140991
vn 0.5462929606437683 -0.8344448804855347 -0.0725649893283844
vn -0.7077630758285522 0.634096086025238 -0.31143802404403687
vn -0.357357919216156 0.40248891711235046 0.8427917957305908
vn 0.07951898127794266 0.5360499024391174 0.8404328227043152
vn 0.02858501486480236 0.5000243186950684 0.8655394911766052
vn -0.13298003375530243 0.414541095495224 0.9002622365951538
vn -0.7589332461357117 0.29901307821273804 0.5784561634063721
vn -0.531119167804718 0.8256562352180481 0.19027405977249146
vn -0.3678221106529236 -0.2450270801782608 0.8970332145690918
vn 0.02321798726916313 -0.6153416633605957 0.7879185080528259
vn -0.06769800186157227 -0.7645059823989868 0.6410520076751709
vn -0.38394907116889954 -0.7722361087799072 0.506196141242981
vn -0.8805462121963501 0.12284702807664871 0.45776310563087463
vn -0.7595996260643005 -0.17239290475845337 0.6271277070045471
vn -0.7358790636062622 0.5471000671386719 0.39895305037498474
vn -0.8054882287979126 0.5679711699485779 0.169108048081398
vn -0.5095908045768738 0.8078557252883911 0.2961188852787018
vn -0.2976241111755371 0.4535621404647827 0.840060293674469
vn 0.1286129504442215 -0.9905716180801392 0.04718698188662529
vn -0.9963271021842957 -0.08535701036453247 0.00681900093331933

g grp1
usemtl mtl1
f 1//1 2//2 3//3 
f 4//4 5//5 6//6 7//7 
f 8//8 4//4 7//7 
f 9//9 10//10 4//4 8//8 
f 11//11 10//10 9//9 
f 12//12 13//13 10//10 11//11 
f 13//13 14//14 10//10 
f 10//10 14//14 4//4 
f 14//14 15//15 5//5 4//4 
f 13//13 16//16 17//17 14//14 
f 17//17 18//18 14//14 
f 12//12 19//19 13//13 
f 12//12 20//20 21//21 19//19 
f 21//21 22//22 23//23 19//19 
f 16//16 24//24 17//17 
f 24//24 25//25 18//18 17//17 
f 19//19 26//26 24//24 16//16 
f 19//19 23//23 26//26 
f 23//23 27//27 26//26 
f 27//27 28//28 26//26 
f 29//29 30//30 31//31 
f 32//32 33//33 29//29 31//31 
f 30//30 34//34 35//35 
f 27//27 36//36 37//37 28//28 
f 36//36 38//38 37//37 
f 36//36 39//39 38//38 
f 36//36 35//35 34//34 39//39 
f 24//24 26//26 40//40 25//25 
f 26//26 28//28 40//40 
f 28//28 37//37 41//41 40//40 
f 14//14 42//42 15//15 
f 14//14 18//18 42//42 
f 42//42 18//18 43//43 44//44 
f 18//18 45//45 43//43 
f 18//18 46//46 45//45 
f 18//18 25//25 47//47 46//46 
f 25//25 40//40 47//47 
f 40//40 41//41 47//47 
f 47//47 41//41 48//48 49//49 
f 48//48 50//50 49//49 
f 49//49 50//50 51//51 
f 48//48 3//3 50//50 
f 48//48 52//52 3//3 
f 51//51 50//50 2//2 
f 47//47 49//49 46//46 
f 46//46 49//49 45//45 
f 53//53 54//54 55//55 56//56 
f 57//57 58//58 54//54 53//53 
f 59//59 58//58 57//57 
f 3//3 57//57 1//1 
f 3//3 60//60 59//59 57//57 
f 48//48 61//61 60//60 52//52 
f 58//58 62//62 63//63 
f 54//54 58//58 63//63 
f 58//58 59//59 64//64 62//62 
f 59//59 60//60 65//65 64//64 
f 60//60 66//66 65//65 
f 60//60 61//61 66//66 
f 67//67 68//68 69//69 
f 66//66 61//61 68//68 
f 66//66 68//68 67//67 
f 61//61 70//70 68//68 
f 70//70 71//71 68//68 
f 68//68 71//71 69//69 
f 71//71 72//72 69//69 
f 71//71 29//29 72//72 
f 34//34 29//29 71//71 
f 39//39 34//34 71//71 
f 48//48 41//41 61//61 
f 61//61 37//37 38//38 70//70 
f 37//37 61//61 41//41 
f 13//13 19//19 16//16 
f 39//39 70//70 38//38 
f 71//71 70//70 39//39 
f 8//8 43//43 45//45 9//9 
f 9//9 45//45 11//11 
f 11//11 45//45 12//12 
f 36//36 45//45 49//49 
f 33//33 72//72 29//29 
f 36//36 69//69 72//72 
f 36//36 49//49 66//66 69//69 
f 49//49 51//51 65//65 66//66 
f 45//45 36//36 12//12 
f 36//36 72//72 33//33 
f 73//73 56//56 63//63 
f 73//73 63//63 62//62 74//74 
f 74//74 62//62 64//64 75//75 
f 75//75 64//64 65//65 76//76 
f 65//65 51//51 77//77 76//76 
f 77//77 51//51 2//2 
f 55//55 78//78 56//56 
f 78//78 63//63 56//56 
f 66//66 67//67 69//69 
f 63//63 55//55 54//54 
f 78//78 55//55 63//63 
f 43//43 8//8 7//7 6//6 44//44 
f 60//60 3//3 52//52 
f 2//2 50//50 3//3 
f 30//30 29//29 34//34 
f 15//15 42//42 44//44 
f 35//35 36//36 23//23 22//22 
f 36//36 27//27 23//23 
f 20//20 32//32 31//31 21//21 
f 30//30 35//35 22//22 
f 31//31 30//30 22//22 21//21 
f 32//32 20//20 36//36 
f 20//20 12//12 36//36 
f 36//36 33//33 32//32 
f 79//79 2//2 1//1 
f 80//80 6//6 5//5 81//81 
f 80//80 81//81 82//82 
f 82//82 81//81 83//83 84//84 
f 84//84 83//83 85//85 
f 85//85 83//83 86//86 87//87 
f 83//83 88//88 86//86 
f 81//81 88//88 83//83 
f 81//81 5//5 15//15 88//88 
f 88//88 89//89 90//90 86//86 
f 88//88 91//91 89//89 
f 86//86 92//92 87//87 
f 92//92 93//93 94//94 87//87 
f 92//92 95//95 96//96 93//93 
f 89//89 97//97 90//90 
f 89//89 91//91 98//98 97//97 
f 90//90 97//97 99//99 92//92 
f 99//99 95//95 92//92 
f 99//99 100//100 95//95 
f 99//99 101//101 100//100 
f 102//102 103//103 104//104 
f 102//102 104//104 105//105 106//106 
f 107//107 108//108 103//103 
f 101//101 109//109 110//110 100//100 
f 109//109 111//111 110//110 
f 111//111 112//112 110//110 
f 112//112 108//108 107//107 110//110 
f 98//98 113//113 99//99 97//97 
f 113//113 101//101 99//99 
f 113//113 114//114 109//109 101//101 
f 15//15 115//115 88//88 
f 115//115 91//91 88//88 
f 44//44 116//116 91//91 115//115 
f 116//116 117//117 91//91 
f 117//117 118//118 91//91 
f 118//118 119//119 98//98 91//91 
f 119//119 113//113 98//98 
f 119//119 114//114 113//113 
f 120//120 121//121 114//114 119//119 
f 120//120 122//122 121//121 
f 123//123 122//122 120//120 
f 122//122 79//79 121//121 
f 79//79 124//124 121//121 
f 2//2 122//122 123//123 
f 118//118 120//120 119//119 
f 117//117 120//120 118//118 
f 56//56 125//125 126//126 53//53 
f 53//53 126//126 127//127 57//57 
f 57//57 127//127 128//128 
f 1//1 57//57 79//79 
f 57//57 128//128 129//129 79//79 
f 124//124 129//129 130//130 121//121 
f 131//131 132//132 127//127 
f 131//131 127//127 126//126 
f 132//132 133//133 128//128 127//127 
f 133//133 134//134 129//129 128//128 
f 134//134 135//135 129//129 
f 135//135 130//130 129//129 
f 136//136 137//137 138//138 
f 137//137 130//130 135//135 
f 138//138 137//137 135//135 
f 137//137 139//139 130//130 
f 137//137 140//140 139//139 
f 136//136 140//140 137//137 
f 136//136 141//141 140//140 
f 141//141 104//104 140//140 
f 140//140 104//104 108//108 
f 140//140 108//108 112//112 
f 130//130 114//114 121//121 
f 139//139 111//111 109//109 130//130 
f 114//114 130//130 109//109 
f 90//90 92//92 86//86 
f 111//111 139//139 112//112 
f 112//112 139//139 140//140 
f 84//84 117//117 116//116 82//82 
f 85//85 117//117 84//84 
f 87//87 117//117 85//85 
f 120//120 117//117 110//110 
f 104//104 141//141 105//105 
f 141//141 136//136 110//110 
f 136//136 135//135 120//120 110//110 
f 135//135 134//134 123//123 120//120 
f 87//87 110//110 117//117 
f 105//105 141//141 110//110 
f 131//131 56//56 73//73 
f 74//74 132//132 131//131 73//73 
f 75//75 133//133 132//132 74//74 
f 76//76 134//134 133//133 75//75 
f 76//76 77//77 123//123 134//134 
f 2//2 123//123 77//77 
f 56//56 142//142 125//125 
f 56//56 131//131 142//142 
f 136//136 138//138 135//135 
f 126//126 125//125 131//131 
f 131//131 125//125 142//142 
f 44//44 6//6 80//80 82//82 116//116 
f 124//124 79//79 129//129 
f 79//79 122//122 2//2 
f 108//108 104//104 103//103 
f 44//44 115//115 15//15 
f 96//96 95//95 110//110 107//107 
f 95//95 100//100 110//110 
f 93//93 102//102 106//106 94//94 
f 96//96 107//107 103//103 
f 93//93 96//96 103//103 102//102 
f 110//110 94//94 106//106 
f 110//110 87//87 94//94 
f 106//106 105//105 110//110 
